<?xml version="1.0" encoding="UTF-8"?><svg id="Layer_2" xmlns="http://www.w3.org/2000/svg" xmlns:xlink="http://www.w3.org/1999/xlink" viewBox="0 0 37.75 36.78"><defs><clipPath id="clippath"><ellipse cx="18.18" cy="17.88" rx="18.18" ry="17.88" fill="#85d2e6"/></clipPath></defs><g id="Layer_5"><ellipse cx="18.18" cy="17.88" rx="18.18" ry="17.88" fill="#85d2e6"/><g clip-path="url(#clippath)"><path d="M17.77,4.97c1.49-.29,3.13-.06,4.56.3,3.3.83,6.37,3.76,7.14,6.98.07.28.1.59.13.88.07.03.14.05.22.06.25.02.51.05.76.1,3.24.63,5.73,2.68,6.77,5.72,1.47,4.29-1.12,9.16-5.62,10.42-.53.15-1.5.39-2,.42-.41.02-.83-.03-1.24,0-.03.13-.06.28-.11.4-.06.14-.13.3-.2.46-2.42,5.71-9.81,7.78-15.18,4.55-2.42-1.45-3.82-3.62-4.47-6.23-.05-.2-.07-1.11-.13-1.19-.83-.14-1.76-.19-2.53-.54-3.65-1.65-5.05-5.09-4.39-8.88.47-2.69,2.81-5.18,5.62-5.75.78-.16,1.59-.21,2.38-.13.08-.36.17-.73.28-1.08,1.13-3.69,4.31-5.76,8.02-6.49"/><path d="M10.79,12.56c-.15.52.04,1.32-.78,1.31-.44,0-.99-.16-1.47-.15-2.16.07-4.21,1.39-5.04,3.32-1.33,3.08-1.17,6.51,1.88,8.54.68.45,1.37.62,2.11.88.51.18,1.23.04,1.75.12.68.1.45.71.5,1.19.39,4.31,3.56,7.24,8,7.72.33.04.42.03.72.1.13.03,1.31-.12,1.56-.15,3.04-.42,6.24-2.67,7.08-5.57.09-.3.14-.79.24-1.04.22-.51.94-.25,1.37-.24,4.16.09,7.55-2.72,7.75-6.79.17-3.54-2.73-6.9-6.38-7.32-.4-.05-.9,0-1.26-.06-.56-.08-.36-.58-.44-.89-.03-.12-.07-.26-.11-.44-.97-5.12-6.63-8.18-11.76-6.48-3.06,1.02-4.86,2.99-5.72,5.98Z"/><path d="M28.26,13.07c.03.18.08.32.11.44.08.32-.13.81.44.89.36.05.86.01,1.26.06,3.64.42,6.55,3.78,6.38,7.32-.2,4.06-3.59,6.88-7.75,6.79-.43,0-1.15-.27-1.37.24-.11.25-.16.74-.24,1.04-.83,2.9-4.04,5.15-7.08,5.57-.24.03-1.43.18-1.56.15-.3-.07-.39-.06-.72-.1-4.44-.48-7.61-3.41-8-7.72-.04-.48.18-1.08-.5-1.19-.52-.08-1.24.06-1.75-.12-.74-.26-1.43-.42-2.11-.88-3.05-2.03-3.21-5.45-1.88-8.54.83-1.93,2.88-3.26,5.04-3.32.48-.01,1.03.15,1.47.15.82,0,.63-.79.78-1.31.85-2.99,2.66-4.96,5.72-5.98,5.12-1.7,10.78,1.35,11.76,6.48ZM12.24,18.09c.07.04.14.03.19.05.05.02.03.09.12.1.21.02.17-.09.22-.1.71-.18,2.15-.19,2.77.11.36.17.83.1.9-.34s-.31-.71-.71-.83c-.59-.17-2.17-.13-2.79,0-.15.03-.66.15-.74.24-.18.2-.21.61.06.77ZM21.65,18.24c.08-.03.08-.1.13-.12.17-.06,1.63-.03,1.83.02.08.02.24.07.4.11.36.08.77.43,1.13.09.06-.06.19-.3.2-.39.02-.32-.33-.44-.52-.64-.73-.27-3.17-.46-3.76.02-.48.39-.13,1.17.57.92ZM13.75,19.06c-.61.26-1.04.57-1.21,1.23-.09.35-.09.91.41.93.69.03.42-.68.78-1,.17-.15.55-.27.76-.14.35.21.22.86.77.84.81-.02.63-1.05.22-1.46s-1.1-.67-1.68-.47c-.01,0-.02.06-.06.08ZM20.84,20.11c-.14.38-.18,1,.39.97s.42-.46.66-.74c.35-.4.91-.27,1.22.1.16.2.09.43.43.51.44.11.76-.22.71-.63,0-.07-.2-.47-.25-.54-.23-.33-.79-.65-1.21-.7-.81-.09-1.66.26-1.95,1.03ZM15.37,22.48c-.02.07-.02.4,0,.47,0,.04.09.03.1.07.04.15.02.32.08.51.57,1.86,3.08,1.99,4.54,1.1.66-.4,1.01-.9,1.07-1.66.04-.48-.25-.53-.64-.61-.77-.16-1.89-.22-2.73-.25-.54-.02-1.42-.06-1.93,0-.25.03-.3.13-.4.33,0,.01-.07.01-.08.05Z" fill="#fff"/><path d="M15.85,22.1c.52-.06,1.39-.02,1.93,0,.84.03,1.97.1,2.73.25.39.08.68.13.64.61-.06.77-.41,1.26-1.07,1.66-1.46.89-3.97.76-4.54-1.1-.06-.19-.04-.36-.08-.51,0-.04-.09-.03-.1-.07-.02-.07-.02-.4,0-.47,0-.04.07-.04.08-.05.1-.19.15-.3.4-.33ZM16.84,23.69c.46.36,1.27.48,1.84.31.04-.01.04-.08.08-.09.36-.12.75-.18,1.03-.47.02-.12-.06-.06-.13-.07-.87-.12-1.84-.11-2.65-.3-.13-.03-.33.02-.47,0,0,.2.14.49.3.61Z"/><path d="M21.07,17.31c-.48.39-.13,1.17.57.92.08-.03.08-.1.13-.12.17-.06,1.63-.03,1.83.02.08.02.24.07.4.11.36.08.77.43,1.13.09.06-.06.19-.3.2-.39.02-.32-.33-.44-.52-.64-.73-.27-3.17-.46-3.76.02Z"/><path d="M13.81,18.98s-.02.06-.06.08c-.61.26-1.04.57-1.21,1.23-.09.35-.09.91.41.93.69.03.42-.68.78-1,.17-.15.55-.27.76-.14.35.21.22.86.77.84.81-.02.63-1.05.22-1.46s-1.1-.67-1.68-.47Z"/><path d="M12.19,17.32c-.18.2-.21.61.06.77.07.04.14.03.19.05.05.02.03.09.12.1.21.02.17-.09.22-.1.71-.18,2.15-.19,2.77.11.36.17.83.1.9-.34s-.31-.71-.71-.83c-.59-.17-2.17-.13-2.79,0-.15.03-.66.15-.74.24Z"/><path d="M22.79,19.08c-.81-.09-1.66.26-1.95,1.03-.14.38-.18,1,.39.97s.42-.46.66-.74c.35-.4.91-.27,1.22.1.16.2.09.43.43.51.44.11.76-.22.71-.63,0-.07-.2-.47-.25-.54-.23-.33-.79-.65-1.21-.7Z"/><path d="M16.53,23.08c0,.2.14.49.3.61.46.36,1.27.48,1.84.31.04-.01.04-.08.08-.09.36-.12.75-.18,1.03-.47.02-.12-.06-.06-.13-.07-.87-.12-1.84-.11-2.65-.3-.13-.03-.33.02-.47,0Z" fill="#fff"/></g></g></svg>