<?xml version="1.0" encoding="utf-8"?>
<!-- Generator: Adobe Adobe Illustrator 24.2.0, SVG Export Plug-In . SVG Version: 6.00 Build 0)  -->
<svg version="1.1" id="Vector_layer_1_" xmlns="http://www.w3.org/2000/svg" xmlns:xlink="http://www.w3.org/1999/xlink" x="0px"
	 y="0px" width="250px" height="250px" viewBox="0 0 250 250" style="enable-background:new 0 0 250 250;" xml:space="preserve">
<style type="text/css">
	.st0{fill:#F7BC00;}
	.st1{fill:#F8F5F1;}
</style>
<path d="M165.55,141.09c-0.01-1.72-0.12-3.43-0.32-5.12c-0.22-1.64-0.52-3.26-0.91-4.86c-0.44-1.66-0.96-3.29-1.58-4.89
	c-0.41-1.03-0.86-2.04-1.34-3.04c-0.21-0.42-0.43-0.84-0.65-1.26c-0.09-0.17-0.19-0.34-0.28-0.52c-0.03-0.05-0.06-0.1-0.08-0.15
	c-0.86-1.49-1.79-2.93-2.81-4.31c-1.05-1.39-2.18-2.72-3.37-3.97c-1.31-1.33-2.69-2.57-4.14-3.73c-1.34-1.03-2.73-1.98-4.17-2.86
	c-1.69-0.98-3.43-1.86-4.89-2.48c-1.65-0.69-3.35-1.27-5.07-1.76c-1.79-0.48-3.62-0.85-5.1-1.06c-1.83-0.24-3.66-0.37-5.5-0.38
	c-1.67,0.01-3.33,0.11-4.99,0.3c-1.68,0.22-3.33,0.53-4.96,0.93c-1.71,0.44-3.38,0.99-4.98,1.62c-1.59,0.65-3.15,1.38-4.66,2.2
	c-1.52,0.86-2.99,1.8-4.41,2.83c-1.45,1.09-2.83,2.26-3.95,3.32c-0.07,0.07-0.13,0.13-0.2,0.2c-1.27,1.26-2.47,2.58-3.58,3.98
	c-1.15,1.48-2.19,3.02-3.14,4.63c-0.9,1.57-1.69,3.17-2.34,4.68c-0.02,0.06-0.05,0.12-0.07,0.18l-0.01,0.01
	c-0.65,1.63-1.22,3.29-1.68,4.96c-0.44,1.69-0.78,3.4-1.02,5.14c-0.22,1.73-0.34,3.45-0.35,5.18c0.01,1.41,0.07,2.81,0.21,4.21
	c0.03,0.26,0.06,0.51,0.08,0.77c0.22,1.72,0.54,3.41,0.96,5.09c0.43,1.66,0.96,3.29,1.58,4.88c0.65,1.62,1.4,3.19,2.23,4.72
	c0.87,1.55,1.84,3.03,2.89,4.47c1.12,1.49,2.32,2.9,3.36,3.97c1.31,1.33,2.68,2.57,4.14,3.73c1.36,1.05,2.77,2.01,4.24,2.9
	c1.61,0.95,3.28,1.79,4.93,2.5c0.03,0.02,0.07,0.03,0.1,0.04l0.09,0.03c1.67,0.68,3.37,1.26,4.76,1.64c1.74,0.47,3.5,0.83,5.28,1.08
	c1.78,0.23,3.56,0.35,5.35,0.37c1.75-0.01,3.49-0.12,4.87-0.28c1.72-0.22,3.43-0.54,5.11-0.95c1.65-0.43,3.27-0.95,4.86-1.57
	c1.64-0.66,3.23-1.41,4.72-2.22c0.02-0.01,0.05-0.03,0.07-0.04l0.03-0.02c1.51-0.85,2.95-1.78,4.35-2.8
	c1.49-1.12,2.9-2.32,4.24-3.61c1.27-1.26,2.45-2.58,3.33-3.69c1.17-1.51,2.26-3.07,3.13-4.54c0.04-0.07,0.09-0.15,0.13-0.23
	l0.01-0.01c0.9-1.57,1.71-3.2,2.32-4.63c0.03-0.08,0.07-0.17,0.11-0.25v-0.01c0.68-1.66,1.25-3.35,1.72-5.07
	c0.42-1.63,0.75-3.26,0.98-4.92C165.4,144.64,165.53,142.87,165.55,141.09z M168.78,126.46c3.15,9.29,3.11,19.59,0.05,28.89
	c-2.62,7.98-7.49,15.18-13.89,20.62c-5.91,5.01-13.08,8.48-20.68,9.99c-2.95,0.59-5.95,0.89-8.96,0.89c-4.96,0-9.93-0.8-14.65-2.38
	c-9.41-3.17-17.56-9.39-23.21-17.53c-3.98-5.74-6.51-12.4-7.55-19.3c-0.02-0.08-0.03-0.16-0.04-0.24c-0.07-0.45-0.12-0.89-0.17-1.34
	c-0.01-0.08-0.02-0.16-0.03-0.24c-0.06-0.54-0.11-1.08-0.15-1.63c-0.01-0.09-0.01-0.17-0.01-0.26c-0.42-6.74,0.62-13.54,3.12-19.84
	c3.8-9.55,10.81-17.74,19.74-22.85c8.12-4.65,17.57-6.79,26.9-5.97c9.76,0.86,19.06,4.89,26.41,11.35c1.84,1.63,3.54,3.41,5.1,5.31
	c0.89,1.08,1.72,2.2,2.5,3.35c0.35,0.52,0.69,1.06,1.03,1.59c0.18,0.29,0.35,0.58,0.53,0.87c0.19,0.34,0.42,0.68,0.59,1.05
	c0.07,0.13,0.14,0.26,0.22,0.39C166.9,121.51,167.94,123.95,168.78,126.46z"/>
<path class="st0" d="M168.83,155.34c3.06-9.3,3.1-19.59-0.05-28.89c-0.85-2.5-1.89-4.95-3.15-7.28c-0.07-0.13-0.14-0.27-0.22-0.39
	c-0.17-0.37-0.39-0.71-0.59-1.05c-0.18-0.29-0.35-0.59-0.53-0.87c-0.34-0.53-0.68-1.07-1.03-1.59c-0.78-1.15-1.61-2.27-2.5-3.35
	c-1.56-1.89-3.26-3.68-5.1-5.31c-7.35-6.46-16.65-10.49-26.41-11.35c-9.33-0.82-18.78,1.31-26.9,5.97
	c-8.93,5.11-15.94,13.3-19.74,22.85c-2.5,6.3-3.54,13.1-3.12,19.84c0,0.09,0,0.17,0.01,0.26c0.04,0.55,0.09,1.08,0.15,1.63
	c0.01,0.08,0.02,0.16,0.03,0.24c0.05,0.45,0.1,0.89,0.17,1.34c0.01,0.08,0.02,0.17,0.04,0.24c1.03,6.89,3.57,13.55,7.55,19.3
	c5.65,8.13,13.8,14.36,23.21,17.53c4.72,1.58,9.69,2.38,14.65,2.38c3,0,6.01-0.29,8.96-0.89c7.6-1.52,14.77-4.98,20.68-9.99
	C161.35,170.53,166.21,163.32,168.83,155.34z M177.3,138.75c0.1,2.38,0.05,4.76-0.15,7.14c-0.21,2.25-0.56,4.47-1.04,6.68
	c-0.43,1.9-1.06,4.13-1.84,6.32c-0.84,2.28-1.82,4.5-2.93,6.67c-1.03,1.95-2.32,4.07-3.76,6.1c-1.2,1.68-2.74,3.58-4.42,5.37
	c-1.53,1.61-3.15,3.13-4.86,4.55c-1.84,1.51-3.78,2.89-5.8,4.15c-1.7,1.06-3.78,2.17-5.93,3.16c-2.03,0.9-4.11,1.69-6.23,2.35
	c-2.19,0.66-4.4,1.18-6.66,1.58c-1.85,0.31-4.08,0.55-6.31,0.66c-2.32,0.09-4.65,0.04-6.97-0.14c-1.93-0.17-4.22-0.51-6.47-0.99
	c-2.27-0.5-4.51-1.15-6.71-1.93c-2.15-0.79-4.26-1.71-6.3-2.76c-2.17-1.13-4.25-2.41-6.25-3.82c-1.81-1.3-3.6-2.76-5.31-4.32
	c-1.7-1.59-3.31-3.31-4.82-5.12c-1.41-1.74-2.73-3.56-3.92-5.46l-0.03-0.04c-0.04-0.07-0.09-0.15-0.14-0.22
	c-1.11-1.82-2.2-3.84-3.15-5.94c-0.9-2.03-1.69-4.11-2.35-6.22c-0.59-1.92-1.14-4.22-1.55-6.56c-0.33-1.9-0.58-4.19-0.69-6.49
	c-0.02-0.37-0.03-0.75-0.03-1.12c-0.04-1.9,0.02-3.8,0.18-5.7c0.18-2.09,0.55-4.53,1.07-6.93c0.42-1.89,1.06-4.11,1.83-6.29
	c0.84-2.3,1.83-4.53,2.95-6.7c1.06-1.98,2.23-3.88,3.51-5.72c1.43-2.02,3-3.93,4.69-5.74c1.39-1.48,3.14-3.12,4.99-4.65
	c1.52-1.25,3.42-2.61,5.4-3.86c1.98-1.22,4.02-2.32,6.13-3.29c2.09-0.93,4.22-1.73,6.4-2.4c1.82-0.55,4.01-1.08,6.24-1.48l0.09-0.02
	c0.02-0.01,0.04-0.01,0.06-0.01c2.09-0.34,4.26-0.58,6.44-0.69c2.33-0.09,4.66-0.04,6.99,0.15c2.29,0.22,4.56,0.57,6.81,1.06
	c1.9,0.42,4.12,1.06,6.3,1.83c2.26,0.83,4.46,1.79,6.59,2.9c2.1,1.12,4.13,2.37,6.09,3.75c1.84,1.32,3.67,2.82,5.4,4.42
	c1.69,1.6,3.28,3.31,4.77,5.12c1.42,1.76,2.76,3.63,3.97,5.58c1.06,1.7,2.17,3.79,3.16,5.93c0.82,1.83,1.67,4.03,2.37,6.29
	c0.58,1.9,1.12,4.17,1.53,6.48C176.93,134.26,177.18,136.49,177.3,138.75z"/>
<path d="M177.14,145.89c0.2-2.38,0.25-4.76,0.15-7.14c-0.11-2.25-0.37-4.49-0.68-6.35c-0.41-2.31-0.96-4.58-1.53-6.48
	c-0.7-2.26-1.54-4.47-2.37-6.29c-0.99-2.15-2.1-4.23-3.16-5.93c-1.21-1.95-2.55-3.82-3.97-5.58c-1.49-1.8-3.08-3.51-4.77-5.12
	c-1.73-1.6-3.55-3.1-5.4-4.42c-1.95-1.38-3.98-2.63-6.09-3.75c-2.13-1.11-4.33-2.07-6.59-2.9c-2.18-0.77-4.4-1.41-6.3-1.83
	c-2.25-0.49-4.52-0.85-6.81-1.06c-2.32-0.19-4.66-0.25-6.99-0.15c-2.18,0.11-4.35,0.35-6.44,0.69c-0.02,0.01-0.04,0.01-0.06,0.01
	l-0.09,0.02c-2.23,0.4-4.42,0.93-6.24,1.48c-2.18,0.67-4.31,1.47-6.4,2.4c-2.11,0.97-4.15,2.07-6.13,3.29
	c-1.98,1.25-3.88,2.61-5.4,3.86c-1.85,1.53-3.6,3.18-4.99,4.65c-1.69,1.81-3.26,3.72-4.69,5.74c-1.28,1.84-2.45,3.75-3.51,5.72
	c-1.13,2.17-2.11,4.4-2.95,6.7c-0.77,2.17-1.41,4.39-1.83,6.29c-0.53,2.41-0.9,4.84-1.07,6.93c-0.16,1.9-0.22,3.8-0.18,5.7
	c0.01,0.37,0.02,0.75,0.03,1.12c0.11,2.3,0.36,4.58,0.69,6.49c0.42,2.34,0.97,4.64,1.55,6.56c0.66,2.11,1.45,4.19,2.35,6.22
	c0.96,2.1,2.05,4.12,3.15,5.94c0.04,0.07,0.09,0.15,0.14,0.22l0.03,0.04c1.2,1.9,2.51,3.72,3.92,5.46c1.51,1.82,3.12,3.53,4.82,5.12
	c1.7,1.57,3.5,3.02,5.31,4.32c2,1.41,4.08,2.68,6.25,3.82c2.04,1.05,4.14,1.96,6.3,2.76c2.2,0.78,4.43,1.42,6.71,1.93
	c2.26,0.48,4.54,0.82,6.47,0.99c2.32,0.19,4.64,0.24,6.97,0.14c2.24-0.11,4.47-0.35,6.31-0.66c2.25-0.39,4.47-0.92,6.66-1.58
	c2.12-0.66,4.2-1.44,6.23-2.35c2.15-0.98,4.23-2.1,5.93-3.16c2.02-1.26,3.96-2.65,5.8-4.15c1.71-1.42,3.33-2.94,4.86-4.55
	c1.67-1.79,3.22-3.69,4.42-5.37c1.44-2.03,2.73-4.14,3.76-6.1c1.12-2.16,2.1-4.39,2.93-6.67c0.77-2.19,1.41-4.42,1.84-6.32
	C176.58,150.36,176.93,148.14,177.14,145.89z M181.67,128.76c1.68,7.6,1.8,15.58,0.33,23.22c-1.69,8.8-5.39,17.14-10.8,24.29
	c-3.96,5.23-8.83,9.79-14.32,13.38c-5.17,3.39-10.85,5.93-16.82,7.56c-4.89,1.33-9.97,1.98-15.03,1.98c-1.95,0-3.91-0.1-5.86-0.29
	c-7.19-0.71-14.28-2.81-20.69-6.13c-8.28-4.29-15.5-10.51-20.88-18.14c-3.32-4.7-5.93-9.91-7.72-15.37
	c-2.06-6.28-3.04-12.9-2.88-19.51c0.01-0.18,0.01-0.35,0.02-0.54c0.01-0.11,0.01-0.22,0.03-0.33c0.15-3.8,0.67-7.58,1.55-11.29
	c1.81-7.59,5.21-14.72,9.83-21c4.87-6.63,11.24-12.14,18.42-16.14c5.73-3.19,12-5.36,18.45-6.46c-0.01-0.13-0.01-0.25,0-0.38
	c0-0.01,0-0.03,0-0.04c-0.06-1.84,0.01-3.7,0.19-5.53c0.1-1,0.58-1.96,1.11-2.8c0.66-1.03,1.61-1.76,2.75-2.18
	c1.23-0.45,2.57-0.6,3.88-0.69c0.95-0.07,1.91-0.1,2.86-0.03c1.15,0.08,2.34,0.13,3.47,0.35c0.76,0.15,1.46,0.37,2.13,0.76
	c0.77,0.45,1.43,1.18,1.9,1.93c1.64,2.56,1.96,5.78,2.01,8.77c6.71,1.25,13.16,3.7,19.04,7.17c7.27,4.28,13.57,10.25,18.31,17.22
	C177.11,114.66,180.08,121.54,181.67,128.76z"/>
<path d="M133.19,88.44c-0.89-1.26-0.58-3.06,0.68-3.95c0.33-0.23,0.65-0.46,0.97-0.71c0.5-0.41,0.98-0.85,1.44-1.31
	c0.46-0.5,0.9-1.01,1.31-1.56c0.35-0.49,0.68-1.01,0.99-1.53c0.38-0.69,0.71-1.4,1-2.13c0.23-0.62,0.42-1.25,0.58-1.88
	c0.15-0.67,0.26-1.35,0.34-2.04c0.06-0.65,0.08-1.3,0.07-1.95c-0.03-0.71-0.1-1.41-0.21-2.11c-0.11-0.61-0.24-1.2-0.41-1.79
	c-0.21-0.67-0.45-1.32-0.73-1.96c-0.27-0.58-0.57-1.15-0.89-1.7c-0.35-0.55-0.72-1.09-1.13-1.61c-0.43-0.52-0.88-1.01-1.36-1.48
	c-0.48-0.45-0.98-0.87-1.5-1.26c-0.5-0.36-1.02-0.7-1.55-1.01c-0.66-0.37-1.35-0.69-2.05-0.97c-0.64-0.24-1.3-0.44-1.96-0.61
	c-0.66-0.15-1.33-0.26-2-0.34c-0.66-0.06-1.33-0.08-1.99-0.07c-0.7,0.03-1.4,0.1-2.09,0.2c-0.64,0.12-1.28,0.27-1.9,0.44
	c-0.58,0.18-1.16,0.39-1.72,0.63c-0.67,0.31-1.33,0.65-1.96,1.03c-0.52,0.34-1.03,0.69-1.52,1.08c-0.47,0.38-0.92,0.79-1.34,1.22
	c-0.5,0.52-0.96,1.07-1.4,1.65c-0.39,0.54-0.74,1.1-1.08,1.68c-0.32,0.6-0.61,1.22-0.86,1.85c-0.24,0.64-0.45,1.3-0.61,1.96
	c-0.14,0.62-0.25,1.24-0.33,1.87c-0.07,0.73-0.1,1.45-0.09,2.18c0.03,0.68,0.09,1.37,0.2,2.05c0.11,0.64,0.26,1.28,0.44,1.91
	c0.2,0.65,0.44,1.28,0.71,1.89c0.29,0.62,0.61,1.23,0.97,1.81c0.33,0.52,0.68,1.02,1.06,1.5c0.42,0.52,0.88,1.01,1.36,1.48
	c0.44,0.41,0.9,0.8,1.38,1.17c1.22,0.94,1.3,2.86,0.34,4c-1.03,1.22-2.77,1.28-3.99,0.34c-3.3-2.54-5.83-6.14-7.09-10.1
	c-1.52-4.76-1.29-9.82,0.54-14.45c2.06-5.21,6.39-9.39,11.55-11.51c6.1-2.51,13.14-1.86,18.78,1.5c4.07,2.42,7.24,6.32,8.85,10.76
	c2.03,5.58,1.62,11.99-1.26,17.2c-1.62,2.93-3.84,5.41-6.57,7.33c-0.49,0.34-1.06,0.5-1.63,0.5
	C134.62,89.62,133.74,89.21,133.19,88.44z"/>
<path d="M125.54,108.45c-1.59,0-2.77-1.29-2.83-2.83c-0.01-0.02-0.01-0.03-0.01-0.05c0-0.05,0-0.1,0-0.15
	c-0.07-1.99-0.12-4-0.25-5.98c-0.09-1.54,1.37-2.83,2.84-2.83c0.75,0,1.49,0.3,2.02,0.85c0.54,0.55,0.76,1.23,0.81,1.99
	c0.13,2.05,0.18,4.12,0.25,6.18C128.43,107.17,127.05,108.45,125.54,108.45C125.55,108.45,125.54,108.45,125.54,108.45z"/>
<path d="M157.51,142.99c-0.55-0.48-0.91-1.17-0.98-1.9c-0.13-1.47,1.02-3.04,2.57-3.08c2.65-0.07,5.31-0.14,7.96-0.21
	c0.01,0,0.01-0.01,0.02-0.01c0.77-0.02,1.49,0.15,2.1,0.67c0.55,0.48,0.91,1.17,0.98,1.9c0.13,1.46-1.02,3.04-2.57,3.08
	c-2.57,0.06-5.14,0.13-7.71,0.2c-0.04,0-0.08,0.01-0.12,0.01c-0.04,0-0.08,0-0.13,0c-0.01,0-0.02,0-0.03,0c-0.04,0-0.09,0-0.13,0
	C158.76,143.66,158.08,143.48,157.51,142.99z"/>
<path d="M81.39,140.84c0.05-1.59,1.37-2.73,2.92-2.74c2.33-0.03,4.66-0.07,6.99-0.1c0.02,0,0.05,0,0.07,0c0.01,0,0.03,0,0.04,0
	c0.01,0,0.01,0,0.02,0c1.54-0.01,2.79,1.42,2.74,2.92c-0.05,1.59-1.37,2.73-2.92,2.75c-2.37,0.03-4.74,0.07-7.11,0.1
	c0,0-0.01,0-0.01,0.01c-0.01,0-0.02,0-0.03,0C82.58,143.76,81.35,142.33,81.39,140.84z"/>
<path d="M125.49,185.04c-1.58-0.04-2.76-1.35-2.77-2.89c-0.02-2.23-0.05-4.46-0.06-6.7c-0.01-1.54,1.38-2.81,2.89-2.77
	c1.58,0.04,2.77,1.35,2.77,2.89c0.02,2.23,0.04,4.46,0.07,6.7c0.02,1.52-1.35,2.77-2.84,2.77
	C125.53,185.04,125.51,185.04,125.49,185.04z"/>
<path class="st1" d="M165.23,135.96c0.07,0.63,0.13,1.26,0.18,1.89c-2.1,0.05-4.21,0.11-6.31,0.17c-1.54,0.04-2.7,1.62-2.57,3.08
	c0.07,0.73,0.43,1.42,0.98,1.9c0.57,0.49,1.25,0.66,1.97,0.66c0.04,0,0.08,0,0.13,0c0.01,0,0.02,0,0.03,0c0.04,0,0.09,0,0.13,0
	s0.08-0.01,0.12-0.01c1.86-0.05,3.72-0.11,5.57-0.15c-0.06,0.97-0.15,1.94-0.28,2.91c-0.24,1.66-0.57,3.3-0.98,4.92
	c-0.48,1.72-1.05,3.41-1.72,5.07v0.01c-0.03,0.08-0.07,0.17-0.11,0.25c-0.61,1.43-1.42,3.05-2.32,4.63l-0.01,0.01
	c-0.04,0.08-0.09,0.15-0.13,0.23c-0.87,1.47-1.96,3.03-3.13,4.54c-0.88,1.1-2.06,2.42-3.33,3.69c-1.34,1.29-2.75,2.49-4.24,3.61
	c-1.39,1.02-2.84,1.95-4.35,2.8l-0.03,0.02c-0.02,0.01-0.05,0.03-0.07,0.04c-1.49,0.81-3.08,1.56-4.72,2.22
	c-1.59,0.62-3.21,1.14-4.86,1.57c-1.68,0.42-3.39,0.73-5.11,0.95c-0.52,0.06-1.09,0.12-1.69,0.16c-0.02-1.85-0.04-3.71-0.06-5.56
	c-0.01-1.54-1.2-2.86-2.77-2.89c-1.51-0.03-2.9,1.23-2.89,2.77c0.01,1.9,0.03,3.81,0.05,5.71c-0.95-0.06-1.9-0.15-2.86-0.27
	c-1.78-0.25-3.54-0.61-5.28-1.08c-1.39-0.38-3.09-0.96-4.76-1.64l-0.09-0.03c-0.03-0.02-0.07-0.03-0.1-0.04
	c-1.65-0.71-3.32-1.55-4.93-2.5c-1.47-0.89-2.88-1.85-4.24-2.9c-1.46-1.16-2.83-2.4-4.14-3.73c-1.04-1.07-2.25-2.48-3.36-3.97
	c-1.05-1.44-2.01-2.92-2.89-4.47c-0.83-1.53-1.58-3.1-2.23-4.72c-0.63-1.59-1.15-3.22-1.58-4.88c-0.42-1.68-0.74-3.38-0.96-5.09
	c-0.03-0.26-0.06-0.51-0.08-0.77c-0.04-0.44-0.08-0.87-0.11-1.31c2.05-0.03,4.11-0.07,6.16-0.09c1.54-0.02,2.87-1.16,2.92-2.75
	c0.04-1.5-1.2-2.93-2.74-2.92c-0.01,0-0.01,0-0.02,0c-0.01,0-0.03,0-0.04,0c-0.02,0-0.04,0-0.07,0c-2.06,0.03-4.12,0.07-6.19,0.09
	c0.06-0.81,0.13-1.62,0.24-2.42c0.24-1.73,0.58-3.44,1.02-5.14c0.46-1.67,1.03-3.33,1.68-4.96l0.01-0.01
	c0.02-0.06,0.05-0.12,0.07-0.18c0.64-1.51,1.44-3.11,2.34-4.68c0.96-1.61,2-3.15,3.14-4.63c1.11-1.39,2.31-2.72,3.58-3.98
	c0.07-0.07,0.13-0.13,0.2-0.2c1.11-1.06,2.5-2.23,3.95-3.32c1.42-1.03,2.89-1.97,4.41-2.83c1.51-0.82,3.07-1.55,4.66-2.2
	c1.6-0.63,3.27-1.17,4.98-1.62c1.64-0.4,3.29-0.71,4.96-0.93c0.73-0.08,1.46-0.15,2.19-0.2c0.08,1.54,0.12,3.09,0.18,4.63
	c0,0.05,0,0.1,0,0.15c0,0.02,0,0.03,0.01,0.05c0.06,1.54,1.23,2.83,2.83,2.83c0.01,0,0.01,0,0.01,0c1.5,0,2.88-1.29,2.83-2.83
	c-0.06-1.6-0.1-3.22-0.18-4.82c0.88,0.06,1.76,0.15,2.63,0.27c1.48,0.2,3.3,0.58,5.1,1.06c1.73,0.49,3.42,1.07,5.07,1.76
	c1.46,0.61,3.2,1.49,4.89,2.48c1.44,0.88,2.83,1.83,4.17,2.86c1.46,1.16,2.84,2.4,4.14,3.73c1.19,1.25,2.32,2.57,3.37,3.97
	c1.02,1.38,1.95,2.82,2.81,4.31c0.02,0.05,0.05,0.1,0.08,0.15c0.09,0.18,0.19,0.35,0.28,0.52c0.22,0.42,0.44,0.84,0.65,1.26
	c0.49,1,0.94,2.01,1.34,3.04c0.61,1.6,1.14,3.23,1.58,4.89C164.71,132.7,165.02,134.32,165.23,135.96z"/>
<path d="M108.9,119.03c-1.8-2.47-0.41-7.4,3.21-6.36C116.94,114.49,113.12,123.54,108.9,119.03z"/>
<path d="M139.08,119.98c-3.81-1.68-1.29-9.03,2.81-6.64C145.1,115.48,143.18,121.64,139.08,119.98z"/>
<path d="M122.74,127.55c-2.55-0.71-6.51-1.85-6.72-4.97c0.05-1.58,1.38-2.74,2.92-2.74c1.16-0.01,1.79,0.83,2.7,1.32
	c1.87,1.05,4.22,1.31,6.29,0.77c0.81-0.26,1.54-0.74,2.16-1.33c1.13-1.05,2.96-0.97,4.01,0.16c2.38,2.82-1.37,5.4-3.81,6.34
	C127.9,128.04,125.22,128.04,122.74,127.55z"/>
<path d="M96.48,153.46c-0.85-1.11-0.66-2.79,0.47-3.63c4.15-3.13,8.32-6.25,12.48-9.37c3.62-2.72,7.24-5.44,10.86-8.16
	c0.17-0.12,0.33-0.25,0.5-0.37c0.12-0.09,0.23-0.17,0.35-0.26c1.13-0.85,2.76-0.66,3.63,0.47c0.85,1.11,0.66,2.78-0.47,3.63
	c-3.44,2.59-6.89,5.17-10.33,7.76c-4.39,3.29-8.77,6.58-13.15,9.87c-0.24,0.17-0.47,0.35-0.7,0.53c-0.62,0.47-1.41,0.63-2.13,0.47
	C97.41,154.27,96.87,153.96,96.48,153.46z"/>
<path d="M120.68,134.07c-0.23-1.39,0.74-2.77,2.14-2.98c0.01,0,0.03,0,0.05-0.01c0.01,0,0.03,0,0.04-0.01
	c0.02,0,0.04-0.01,0.07-0.01c3.98-0.64,7.95-1.29,11.92-1.94c4.45-0.72,8.91-1.44,13.36-2.17c1.61-0.26,3.22-0.53,4.84-0.78
	c0.13-0.02,0.27-0.04,0.4-0.06c1.39-0.22,2.74,0.73,2.98,2.13c0.23,1.39-0.74,2.75-2.13,2.98c-0.15,0.02-0.3,0.05-0.44,0.07
	c-0.09,0.01-0.17,0.03-0.26,0.04c-0.04,0.01-0.08,0.01-0.12,0.02c-3.48,0.54-6.95,1.13-10.43,1.69c-4.31,0.7-8.63,1.41-12.95,2.1
	c-2.15,0.35-4.29,0.7-6.44,1.05c-0.05,0.01-0.1,0.01-0.15,0.02c0,0-0.01,0-0.01,0c-0.01,0-0.01,0-0.02,0
	c-0.27,0.03-0.53,0.01-0.78-0.04C121.72,135.97,120.87,135.15,120.68,134.07z"/>
<path d="M96.48,152.72c-0.21-1.4,0.79-2.73,2.18-2.94c0.02,0,0.04-0.01,0.05-0.01c5.78-0.85,11.55-1.76,17.32-2.63
	c3.72-0.57,7.43-1.13,11.15-1.7c0.31-0.05,0.61-0.09,0.92-0.14c0.03-0.01,0.06-0.01,0.09-0.02c0.03,0,0.07-0.01,0.1-0.01
	c0.18-0.03,0.35-0.05,0.53-0.08c1.4-0.21,2.73,0.79,2.94,2.19c0.21,1.4-0.79,2.72-2.18,2.94c-0.21,0.03-0.41,0.06-0.62,0.09
	c-0.01,0-0.01,0-0.02,0c0,0-0.01,0-0.01,0c-2.89,0.43-5.78,0.88-8.67,1.32c-5.12,0.78-10.25,1.56-15.37,2.34
	c-1.83,0.28-3.65,0.57-5.48,0.84c-0.3,0.04-0.6,0.03-0.88-0.03C97.5,154.67,96.64,153.82,96.48,152.72z"/>
<path d="M127.79,149.31c-0.86-1.14-0.61-2.76,0.5-3.63c3.13-2.45,6.26-4.88,9.4-7.32c3.38-2.63,6.76-5.26,10.13-7.89
	c1.43-1.11,2.86-2.23,4.29-3.34c1.11-0.87,2.79-0.61,3.63,0.5c0.86,1.14,0.61,2.76-0.5,3.63c-2.29,1.79-4.58,3.57-6.87,5.35
	c-3.21,2.5-6.42,5.01-9.64,7.51c-2.44,1.9-4.88,3.79-7.31,5.7c-0.6,0.47-1.37,0.61-2.08,0.46
	C128.73,150.15,128.17,149.82,127.79,149.31z"/>
<path d="M126.73,148.78c-0.01-0.02-0.01-0.03-0.02-0.05c-1.04-2.79-2.08-5.58-3.12-8.36c-0.69-1.84-1.38-3.69-2.06-5.53
	c-0.49-1.33,0.26-2.85,1.57-3.31c1.34-0.47,2.82,0.25,3.31,1.57c1.43,3.86,2.88,7.72,4.32,11.58c0.28,0.75,0.56,1.5,0.84,2.25
	c0.01,0.02,0.01,0.03,0.02,0.05c0.01,0.01,0.01,0.03,0.02,0.05c0,0.01,0.01,0.02,0.01,0.03c0.49,1.32-0.26,2.84-1.57,3.31
	c-0.46,0.16-0.93,0.18-1.37,0.09C127.8,150.27,127.05,149.65,126.73,148.78z"/>
<path class="st0" d="M123.59,140.37c0.66,1.77,1.32,3.55,1.99,5.32c-3.18,0.48-6.35,0.97-9.53,1.45c-2.89,0.44-5.77,0.88-8.66,1.33
	c2.19-1.65,4.39-3.3,6.59-4.95c2.81-2.11,5.62-4.22,8.43-6.33C122.8,138.25,123.19,139.31,123.59,140.37z"/>
<path class="st0" d="M144.88,132.76c-2.39,1.87-4.78,3.74-7.18,5.6c-2.41,1.88-4.82,3.75-7.22,5.63c-1.05-2.79-2.09-5.58-3.13-8.37
	c0.93-0.15,1.86-0.3,2.8-0.46c4.32-0.7,8.63-1.4,12.95-2.1C143.68,132.95,144.28,132.86,144.88,132.76z"/>
</svg>
