<?xml version="1.0" encoding="utf-8"?>
<!-- Generator: Adobe Adobe Illustrator 24.2.0, SVG Export Plug-In . SVG Version: 6.00 Build 0)  -->
<svg version="1.1" id="Vector_layer_1_" xmlns="http://www.w3.org/2000/svg" xmlns:xlink="http://www.w3.org/1999/xlink" x="0px"
	 y="0px" width="250px" height="250px" viewBox="0 0 250 250" style="enable-background:new 0 0 250 250;" xml:space="preserve">
<style type="text/css">
	.st0{fill:#F8F5F1;}
	.st1{fill:#454545;}
	.st2{fill:#FC6A68;}
</style>
<path d="M108.43,163.83c-2.77-0.39-11.65-0.2-10.54-4.52c0.36-1.31,1.79-2.15,3.11-1.76c9.76,3.08,20.13,0.19,27.79-6.25
	c4.91-3.67,6.41-12.62-0.18-15.33c-3.37-1.21-7.1-0.1-10.24,0.89c-2.08,0.76-4.24,1.5-6.01,2.87c-1.22,0.63-2.73,0.33-3.46-0.9
	c-2.7-4.89,11.81-8.01,15.07-8.39c9.96-1.29,17.09,8.83,13.1,17.9C132.66,158.17,118.83,164.28,108.43,163.83z"/>
<path d="M90.92,80.06c-2.91-1.35-0.82-4.59,0.05-6.66c1.74-4.02,3.99-7.83,7.02-11.03c13.3-14.9,35.61-10.91,46.12,5.02
	c1.72,2.86,2.8,6.07,3.74,9.25c0.37,1.33-0.44,2.74-1.77,3.11c-2.95,0.7-3.28-2.59-4.01-4.6c-1.19-3.67-3.23-7.28-6.18-9.76
	c-16.06-14.46-35.03-6.17-41.55,12.98c0.02-0.11,0.05-0.22,0.07-0.32c0-0.05,0-0.09,0.01-0.14C94.34,79.58,92.43,80.77,90.92,80.06z
	"/>
<path d="M165.16,108.15c-1.9-1.19-1.25-3.11-0.26-4.68c5.6-12.39-2.3-22.95-15.38-23.44c-2.24-0.22-6.01,0.67-6.13-2.61
	c0.28-3.72,4.99-2.33,7.5-2.34c7.13,0.64,14.56,3.87,18.21,10.31c2.1,3.62,2.89,7.9,2.57,12.05
	C171.3,100.38,169.61,110.4,165.16,108.15z"/>
<path d="M68.26,114.39c-5.96-8.55-4.13-21.02,2.17-28.9c5.24-5.72,12.71-9.05,20.36-9.8c0.7-0.26,1.58-0.29,2.23,0.14
	c2.36,1.44,1.15,4.72-1.45,4.88c-13.76,1.15-23.86,11.08-21.55,25.33c0.34,1.81,1.19,3.79,2.2,5.24c0.39,0.57,0.61,1.19,0.52,1.9
	C72.56,115.29,69.5,116.17,68.26,114.39z"/>
<path d="M84.31,166.97c-8.84-1.11-17.06-6.29-22.21-13.51c-7.35-11.54-4.47-27.16,3.02-37.92c1.47-2.01,3.6-6.31,6.48-3.86
	c2.29,2.5-1.31,4.68-2.38,6.81c-5.93,8.66-8.61,20.56-3.97,30.36c4.93,8.58,15.63,14.85,25.58,12.72c2.57-0.83,4.41,2.99,2.14,4.48
	C90.35,167.35,87.17,167.1,84.31,166.97z"/>
<path d="M109.02,179.49c-4.13-0.91-8.1-2.62-11.58-5.02c-3.06-2.11-5.78-4.81-7.71-8c-0.18-0.3-0.36-0.61-0.53-0.92
	c-0.67-1.2,0.01-2.8,1.19-3.37c1.26-0.6,2.61-0.05,3.26,0.99c0.02,0.04,0.04,0.07,0.06,0.11c0.02,0.03,0.04,0.06,0.05,0.09
	c0,0,0,0.01,0,0.01c0.37,0.65,0.78,1.27,1.19,1.82c0.01,0.02,0.03,0.04,0.04,0.06l0.02,0.02c0.56,0.73,1.15,1.43,1.79,2.09
	c0.77,0.77,1.58,1.49,2.44,2.16c0.9,0.68,1.83,1.31,2.52,1.72c1.05,0.62,2.14,1.17,3.25,1.66c1.13,0.48,2.28,0.89,3.46,1.24
	c1.14,0.32,2.3,0.57,3.47,0.76c1.19,0.18,2.39,0.28,3.59,0.3c0.98,0.01,1.95-0.03,2.92-0.13c0.95-0.11,1.89-0.27,2.82-0.49
	c0.87-0.22,1.72-0.49,2.55-0.82c0.65-0.27,1.29-0.58,1.91-0.92c0.52-0.3,1.03-0.63,1.45-0.94c0.02-0.02,0.05-0.04,0.07-0.06l0,0
	c0.45-0.35,0.88-0.72,1.29-1.11c0.07-0.07,0.14-0.14,0.21-0.21c0.03-0.03,0.06-0.07,0.09-0.1c0.94-1,2.52-1.15,3.57-0.21
	c1.01,0.89,1.15,2.56,0.21,3.57c-0.02,0.03-0.05,0.05-0.07,0.08c-0.01,0.01-0.02,0.02-0.03,0.03c-3.09,3.21-7.24,5.11-11.58,5.91
	c-1.65,0.3-3.33,0.45-5.01,0.45C113.6,180.26,111.27,179.99,109.02,179.49z"/>
<path d="M132.52,136.79c-1.41-0.01-2.48-1.17-2.51-2.55c0-0.04,0-0.09,0-0.13c0-0.03,0-0.06,0-0.09c-0.07-3.54-0.15-7.08-0.22-10.61
	c-0.04-1.77-0.07-3.54-0.11-5.32c-0.02-1.38,1.2-2.52,2.55-2.51c1.41,0.01,2.48,1.17,2.51,2.55c0.05,2.61,0.1,5.22,0.16,7.83
	c0.06,2.77,0.11,5.54,0.17,8.32c0.02,1.37-1.19,2.51-2.53,2.51C132.54,136.79,132.53,136.79,132.52,136.79z"/>
<path d="M130.24,118.65c-0.85-1.1-0.61-2.56,0.36-3.47c-0.05,0.04-0.1,0.09-0.15,0.13c-0.03,0.04-0.06,0.07-0.09,0.11
	c1.41-1.73,3.9-1.86,5.97-1.99c2.57-0.14,5.14,0,7.71-0.01c3.32,0.04,3.4,4.93,0.09,5.05c-3.41,0.05-6.71-0.33-9.9,0.3
	C133.12,119.86,131.24,119.95,130.24,118.65z"/>
<path d="M145.37,127.05c-1.43-0.06-2.4-1.25-2.42-2.63c-0.03-2.58-0.06-5.17-0.09-7.75c0-0.76-0.01-1.51-0.02-2.27
	c-0.02-1.38,1.32-2.48,2.63-2.42c1.44,0.06,2.4,1.25,2.42,2.63c0.04,3.18,0.07,6.36,0.1,9.54c0,0.16,0,0.32,0,0.48
	c0.02,1.34-1.24,2.42-2.53,2.42C145.44,127.05,145.4,127.05,145.37,127.05z"/>
<path d="M174.37,125.02c0-0.03,0-0.05,0-0.08c0-0.03,0-0.06,0-0.1c-0.09-3.12-0.16-6.24-0.25-9.36c-0.01-0.51-0.03-1.02-0.04-1.53
	c0-0.03,0-0.06,0-0.1c0-0.02,0-0.05,0-0.07c-0.02-1.38,1.1-2.55,2.48-2.58c1.39-0.02,2.53,1.11,2.58,2.48
	c0.11,3.56,0.19,7.13,0.28,10.69c0,0.19,0.01,0.37,0.01,0.55c0.03,1.38-1.12,2.55-2.48,2.58c-0.01,0-0.03,0-0.04,0
	C175.53,127.5,174.4,126.38,174.37,125.02z"/>
<path d="M142.98,125.25c0.03-0.67,0.34-1.31,0.84-1.76c0.52-0.46,1.14-0.62,1.81-0.63c3.26-0.04,6.52-0.06,9.78-0.09
	c4.32-0.04,8.65-0.08,12.98-0.12c2.77-0.02,5.54-0.05,8.3-0.08c0.04,0,0.08,0,0.12,0c0.06,0,0.12,0,0.19,0
	c1.38-0.01,2.46,1.35,2.39,2.66c-0.03,0.67-0.34,1.31-0.85,1.76c-0.51,0.46-1.13,0.63-1.81,0.63c-0.06,0-0.12,0-0.19,0
	c-0.03,0-0.07,0-0.1,0c-3.17,0.03-6.35,0.06-9.52,0.09c-4.23,0.04-8.47,0.08-12.71,0.12c-2.95,0.03-5.9,0.05-8.85,0.08
	c-0.01,0-0.01,0-0.02,0C143.98,127.91,142.91,126.55,142.98,125.25z"/>
<path d="M166.26,112.71c-0.92-7.48-9.07-6.36-10.97-0.15c-0.6,3.04-5.16,2.53-5-0.62c0.07-0.88,0.44-1.77,0.81-2.58
	c4.42-9.52,17.93-9.39,19.97,1.67C172.41,114.54,167.26,116.37,166.26,112.71z"/>
<path d="M144.3,115.97c-1.36-0.47-1.93-1.9-1.55-3.22c0.35-1.2,1.64-1.75,2.79-1.81c2.41-0.26,4.84-0.44,7.26-0.46
	c3.3,0.26,3,5.15-0.32,5.04C149.76,115.44,146.98,116.17,144.3,115.97z"/>
<path d="M176.65,115.71c-1.31-0.04-2.63-0.08-3.94-0.12c-1.15-0.04-2.3-0.07-3.44-0.11c-0.14,0-0.28-0.01-0.42-0.01
	c-1.38-0.03-2.53-1.12-2.53-2.52c0-1.35,1.15-2.57,2.52-2.53c0.77,0.02,1.54,0.05,2.31,0.07c1.41,0.04,2.83,0.09,4.24,0.13
	c0.41,0.01,0.83,0.03,1.25,0.04c1.38,0.04,2.53,1.12,2.53,2.52c0,1.32-1.11,2.53-2.45,2.53
	C176.7,115.71,176.67,115.71,176.65,115.71z"/>
<path d="M129.71,192.24c0-0.03,0-0.07,0-0.11c0-0.06,0-0.11,0-0.16c0-3.86-0.03-7.72-0.04-11.58c-0.01-4.55-0.03-9.09-0.04-13.64
	c-0.01-4.61-0.02-9.22-0.05-13.84c0-1.38,0.94-2.59,2.37-2.68c1.31-0.08,2.67,0.99,2.68,2.37c0.02,4.76,0.03,9.53,0.04,14.29
	c0.01,4.57,0.03,9.13,0.04,13.7c0.01,3.75,0.04,7.49,0.04,11.23c0,0,0,0,0,0c0,0.03,0,0.07,0,0.11c0,1.38-0.93,2.59-2.37,2.68
	c-0.05,0-0.09,0-0.14,0C130.98,194.61,129.71,193.57,129.71,192.24z"/>
<path d="M157.87,196.88c-6.6-0.14-12.72-0.58-19.15-0.54c-2.42-0.05-5.12,0.37-7.21-1.11c-1.46-0.95-2.2-3.41-0.81-4.63
	c1.13-1.18,3.31-0.91,4.03,0.61c9.7,0.04,19.22,0.75,28.89,0.58c8.15,0.19,16.25-0.83,24.39-0.61c1.38-0.04,2.55,1.13,2.57,2.48
	c-0.19,3.66-4.71,2.39-7.17,2.56C174.91,196.49,166.4,197.08,157.87,196.88z"/>
<path d="M189.15,195.72c-1.4-0.04-2.46-1.22-2.45-2.6c0,0,0-0.01,0-0.02c0,0,0,0,0-0.01c0.01-2.71,0.03-5.41,0.04-8.12
	c0.02-3.67,0.04-7.33,0.06-11.01c0.02-4.46,0.04-8.91,0.07-13.38c0.02-4.12,0.04-8.25,0.06-12.37c0.03-6.16,0.07-12.31,0.1-18.47
	c0.02-3.96,0.04-7.91,0.06-11.87c0.01-1.37,1.25-2.49,2.6-2.45c1.4,0.04,2.46,1.22,2.45,2.6c0,0,0,0.01,0,0.02c0,0,0,0.01,0,0.01
	c-0.02,4.34-0.05,8.68-0.07,13.02c-0.03,6.15-0.06,12.31-0.1,18.46c-0.02,3.94-0.04,7.89-0.06,11.84
	c-0.03,4.53-0.05,9.06-0.08,13.59c-0.02,3.61-0.04,7.23-0.06,10.85c-0.01,2.48-0.02,4.97-0.04,7.45c-0.01,1.35-1.2,2.45-2.52,2.45
	C189.2,195.73,189.17,195.72,189.15,195.72z"/>
<path d="M187.24,118.68c-2.7-0.66-5.61-0.25-8.37-0.29c-1.5,0.43-3.06-0.7-3.18-2.24c-0.15-3.03,3.39-2.95,5.55-2.85
	c2.24,0.06,4.52-0.2,6.72,0.32c1.81,0.43,4.1,1.73,4.14,3.86c0.1,1.35-0.94,2.64-2.31,2.72
	C188.74,120.29,187.65,119.64,187.24,118.68z"/>
<path d="M154.67,134.91c-0.05-1.35,1.04-2.61,2.42-2.63c2.88-0.04,5.77-0.08,8.66-0.12c0.01,0,0.02,0,0.03,0
	c1.38-0.02,2.57,1.02,2.63,2.42c0.05,1.35-1.05,2.61-2.42,2.63c-2.86,0.05-5.72,0.08-8.58,0.12c-0.01,0-0.02,0-0.02,0
	c-0.03,0-0.05,0-0.08,0c-0.02,0-0.03,0-0.05,0C155.9,137.33,154.73,136.3,154.67,134.91z"/>
<path d="M156.32,168.26c-1.38,0-2.47-1.31-2.41-2.64c0.06-1.43,1.26-2.41,2.64-2.41c3.01-0.02,6.02-0.03,9.02-0.04
	c0.14,0,0.27,0,0.4,0c0,0,0,0,0,0c0,0,0.01,0,0.01,0c1.38,0,2.47,1.31,2.41,2.64c-0.06,1.43-1.26,2.4-2.64,2.41
	c-2.44,0.02-4.89,0.02-7.34,0.03c-0.64,0-1.28,0.01-1.92,0.01c-0.02,0-0.03,0-0.05,0C156.41,168.26,156.36,168.26,156.32,168.26z"/>
<path d="M154.12,144.37c-0.07-2.7-0.14-5.4-0.21-8.1c-0.01-0.38-0.02-0.76-0.03-1.14c-0.02-1.38,0.97-2.59,2.38-2.67
	c1.34-0.07,2.64,1.01,2.67,2.39c0.05,2.87,0.15,5.74,0.22,8.61c0,0.21,0.01,0.42,0.01,0.63c0.04,1.38-0.98,2.59-2.38,2.67
	c-0.04,0-0.08,0-0.12,0C155.36,146.76,154.15,145.7,154.12,144.37z"/>
<path d="M164.09,144.45c0.02-1.75,0.04-3.49,0.06-5.24c0.02-1.46,0.03-2.92,0.05-4.38c0.02-1.38,1.08-2.55,2.48-2.57
	c1.35-0.02,2.59,1.11,2.57,2.48c0,0.01,0,0.02,0,0.02c0,0.01,0,0.01,0,0.02c-0.04,2.79-0.07,5.59-0.1,8.38
	c0,0.4-0.01,0.79-0.01,1.19c-0.01,1.38-1.08,2.55-2.48,2.57c-0.01,0-0.03,0-0.04,0C165.29,146.93,164.08,145.81,164.09,144.45z"/>
<path d="M143.61,155.88c-0.1-3.24-0.21-6.48-0.32-9.71c-0.01-0.31-0.02-0.62-0.03-0.93c-0.04-1.38,1.08-2.56,2.45-2.6
	c1.38-0.04,2.56,1.07,2.6,2.45c0.1,3.34,0.22,6.68,0.33,10.02c0,0.2,0.01,0.4,0.02,0.61c0.04,1.38-1.08,2.56-2.45,2.6
	c-0.02,0-0.05,0-0.07,0C144.79,158.33,143.65,157.23,143.61,155.88z"/>
<path d="M173.91,155.28c0-0.05,0-0.11,0-0.16c0-0.04,0-0.08,0-0.12c-0.03-2.85-0.03-5.71-0.05-8.56c0-0.68-0.01-1.37-0.01-2.05
	c0,0,0,0,0,0v0c0-1.38,1.1-2.55,2.49-2.57c1.37-0.02,2.55,1.11,2.56,2.49c0,3.45,0.04,6.89,0.06,10.33c0,0.19,0,0.38,0,0.57
	c0,1.38-1.11,2.55-2.49,2.57c-0.01,0-0.02,0-0.04,0C175.08,157.77,173.92,156.65,173.91,155.28z"/>
<path d="M145.14,147.12c-1.73-0.37-2.45-2.63-1.38-3.98c0.56-0.71,1.44-1.06,2.29-0.97c3.53-0.07,7.07-0.32,10.6-0.17
	c3.32,0.06,3.38,4.95,0.07,5.05C152.86,146.8,148.98,147.38,145.14,147.12z"/>
<path d="M164.47,144.68c-0.05-1.33,1.04-2.63,2.42-2.63c2.46,0,4.94-0.09,7.4-0.13c0.7-0.01,1.39-0.02,2.08-0.03
	c1.38-0.02,2.58,1.02,2.63,2.42c0.05,1.35-1.04,2.61-2.42,2.63c-1.93,0.03-3.86,0.07-5.79,0.1c-1.23,0.02-2.46,0.06-3.69,0.06
	C165.72,147.1,164.52,146.1,164.47,144.68z"/>
<path d="M143.86,156.03c-0.02-1.38,1.11-2.55,2.49-2.57c2.61-0.03,5.22-0.06,7.83-0.09c0.51,0,1.01-0.01,1.52-0.01
	c1.38-0.02,2.55,1.11,2.56,2.49c0.02,1.38-1.11,2.55-2.49,2.57c-2.19,0.02-4.38,0.05-6.57,0.07c-0.9,0.01-1.8,0.02-2.71,0.03
	c-0.01,0-0.02,0-0.03,0c-0.01,0-0.02,0-0.04,0c-0.01,0-0.02,0-0.03,0C145.03,158.52,143.87,157.41,143.86,156.03z"/>
<path d="M153.86,165.31c-0.06-1.64-0.13-3.29-0.19-4.93c-0.05-1.32-0.1-2.64-0.15-3.96c0-0.03,0-0.05,0-0.08c0-0.01,0-0.02,0-0.04
	c-0.05-1.38,0.97-2.59,2.37-2.68c1.35-0.08,2.62,0.99,2.68,2.37c0,0.01,0,0.01,0,0.02c0,0.01,0,0.01,0,0.02c0,0.04,0,0.08,0,0.12
	c0.1,2.56,0.2,5.12,0.3,7.69c0.02,0.39,0.03,0.77,0.05,1.16c0.05,1.38-0.98,2.59-2.37,2.68c-0.05,0-0.09,0-0.14,0
	C155.1,167.68,153.92,166.64,153.86,165.31z"/>
<path d="M170.29,158.25c-1.11,0-2.21-0.01-3.32-0.01c-1.38,0-2.5-1.22-2.48-2.58c0.03-1.39,1.2-2.48,2.58-2.47
	c1.64,0,3.28,0.01,4.92,0.01c1.44,0,2.89,0.01,4.33,0.01c1.38,0,2.5,1.22,2.48,2.58c-0.03,1.4-1.2,2.48-2.58,2.48
	C174.25,158.27,172.27,158.26,170.29,158.25z"/>
<path d="M166.54,168.01c-1.39-0.02-2.49-1.19-2.48-2.57c0-0.06,0-0.12,0-0.18c0-0.03,0-0.07,0-0.1c0.03-2.45,0.04-4.91,0.06-7.37
	c0-0.72,0.01-1.43,0.01-2.15c0-1.38,1.21-2.51,2.57-2.48c1.39,0.02,2.49,1.19,2.48,2.57c-0.01,2.35-0.03,4.71-0.05,7.07
	c0,0.91-0.01,1.82-0.02,2.72c-0.01,1.36-1.17,2.48-2.53,2.48C166.57,168.01,166.56,168.01,166.54,168.01z"/>
<path d="M161.14,183.14c-2.73,0.04-5.1-1.41-7.63-2.2c-1.62-0.41-3.42,0.02-4.96,0.46c-1.84,0.6-4.09,1.85-5.33-0.42
	c-1.21-2.42,1.42-3.91,3.46-4.28c2.81-0.89,5.88-1.4,8.74-0.45c2.25,0.67,3.71,1.82,5.93,1.86c2.58-0.27,4.84-1.94,7.48-2.1
	c2.72-0.44,5.47-0.12,8.08,0.72c3.12,1.1,1.61,5.75-1.58,4.8c-2.39-0.8-4.99-0.87-7.41-0.19
	C165.69,182.08,163.55,183.21,161.14,183.14z"/>
<path d="M105.78,99.76c-0.77-0.93-1.15-2.1-1.21-3.3c-0.01-0.35-0.01-0.68,0.01-1.02c0,0,0.01,0,0.01,0c0-0.01,0-0.02,0-0.04
	c0-0.06,0-0.12,0.01-0.18c0,0,0-0.01,0,0c0-0.04,0.01-0.09,0.01-0.13c0.06-0.58,0.22-1.19,0.49-1.71c0.59-1.12,1.66-2.02,3-1.93
	c1.45,0.09,2.49,1.11,3.01,2.4c0.68,1.68,0.59,3.77-0.28,5.36c-0.56,1.02-1.65,1.62-2.8,1.64c-0.01,0-0.02,0-0.03,0
	C107.18,100.84,106.3,100.4,105.78,99.76z"/>
<path d="M141.26,100.3c-1.93-0.71-2.47-2.96-2.39-4.79c0.06-1.38,0.59-2.83,1.53-3.85c0.05-0.06,0.11-0.11,0.16-0.16
	c0.08-0.08,0.16-0.15,0.25-0.22c0.08-0.06,0.16-0.12,0.25-0.18c0.03-0.02,0.06-0.04,0.09-0.06c1.57-1.1,3.77-0.43,4.67,1.17
	c0.91,1.59,0.84,3.54,0.27,5.25c-0.55,1.65-1.97,3.05-3.68,3.05C142.04,100.51,141.65,100.44,141.26,100.3z"/>
<path d="M125.44,109.64c-3.38,0.17-12.91-3.09-8.62-7.47c1.23-0.79,2.91-0.48,3.64,0.83c0.91,0.63,1.98,1.03,3.04,1.35
	c2.38,0.62,5.03,0.17,6.68-1.76c2.17-2.47,5.97,0.76,3.84,3.28C131.88,108.29,128.69,109.84,125.44,109.64z"/>
<path class="st0" d="M110.83,99.2c0.87-1.59,0.96-3.67,0.28-5.36c-0.52-1.29-1.56-2.31-3.01-2.4c-1.34-0.08-2.41,0.81-3,1.93
	c-0.27,0.52-0.43,1.13-0.49,1.71c0,0.04,0,0.09-0.01,0.13c0,0.06-0.01,0.12-0.01,0.18c0,0.01,0,0.02,0,0.04c0,0,0,0-0.01,0
	c-0.02,0.34-0.03,0.67-0.01,1.02c0.05,1.2,0.44,2.37,1.21,3.3c0.53,0.63,1.41,1.08,2.23,1.08c0.01,0,0.02,0,0.02,0
	C109.18,100.82,110.27,100.22,110.83,99.2z M134.01,105.87c2.13-2.52-1.66-5.76-3.84-3.28c-1.65,1.93-4.3,2.38-6.67,1.76
	c-1.06-0.32-2.12-0.72-3.04-1.35c-0.73-1.32-2.41-1.62-3.64-0.83c-4.29,4.38,5.24,7.64,8.62,7.47
	C128.69,109.84,131.88,108.29,134.01,105.87z M146.08,97.46c0.57-1.7,0.64-3.65-0.27-5.25c-0.91-1.6-3.1-2.27-4.67-1.17
	c-0.03,0.02-0.06,0.04-0.08,0.06c-0.08,0.05-0.17,0.11-0.25,0.18c-0.08,0.07-0.17,0.14-0.25,0.22c-0.05,0.05-0.11,0.1-0.16,0.16
	c-0.94,1.03-1.47,2.47-1.53,3.85c-0.08,1.83,0.46,4.08,2.39,4.79c0.39,0.14,0.77,0.21,1.15,0.21
	C144.12,100.51,145.54,99.11,146.08,97.46z M149.52,80.04c12.97,0.48,20.84,10.86,15.52,23.11c-4.85-1.92-11.18,0.26-13.95,6.22
	c-0.17,0.38-0.35,0.77-0.49,1.17c-1.69,0.07-3.38,0.21-5.06,0.4c-1.15,0.05-2.44,0.61-2.79,1.81c-0.06,0.22-0.1,0.44-0.11,0.66
	c-2.11-0.02-4.21-0.09-6.32,0.02c-2.03,0.12-4.46,0.25-5.88,1.88c0.05-0.04,0.1-0.09,0.15-0.14c-0.66,0.63-0.99,1.5-0.85,2.35
	c-0.04,0.18-0.07,0.37-0.06,0.56c0.04,1.77,0.07,3.54,0.11,5.32c0.05,2.56,0.11,5.12,0.16,7.68c-1.81-0.67-3.83-0.92-5.98-0.64
	c-3.26,0.38-17.77,3.5-15.07,8.39c0.73,1.23,2.24,1.53,3.46,0.9c1.77-1.37,3.92-2.1,6.01-2.87c3.14-1,6.87-2.1,10.24-0.89
	c6.58,2.71,5.09,11.66,0.18,15.33c-7.67,6.44-18.03,9.33-27.79,6.25c-1.32-0.38-2.75,0.45-3.11,1.76
	c-1.11,4.31,7.77,4.12,10.54,4.52c6.78,0.29,15.03-2.21,21.17-6.71c0.01,3.21,0.02,6.42,0.03,9.62c0,1.04,0,2.07,0.01,3.11
	c-0.3,0.14-0.57,0.34-0.81,0.59c-0.03,0.03-0.06,0.06-0.09,0.09c-0.07,0.07-0.14,0.14-0.21,0.21c-0.41,0.39-0.84,0.76-1.29,1.11
	c-0.02,0.02-0.05,0.04-0.07,0.06c-0.42,0.3-0.93,0.63-1.45,0.93c-0.62,0.34-1.26,0.65-1.91,0.92c-0.83,0.33-1.68,0.6-2.55,0.81
	c-0.93,0.22-1.87,0.38-2.82,0.49c-0.97,0.1-1.94,0.14-2.92,0.13c-1.2-0.02-2.4-0.12-3.59-0.3c-1.17-0.19-2.32-0.44-3.47-0.76
	c-1.17-0.35-2.33-0.76-3.45-1.24c-1.12-0.49-2.2-1.04-3.25-1.66c-0.69-0.41-1.62-1.04-2.52-1.72c-0.85-0.68-1.67-1.39-2.44-2.16
	c-0.64-0.66-1.23-1.36-1.79-2.09l-0.01-0.02c-0.01-0.02-0.03-0.03-0.04-0.05c-0.34-0.46-0.67-0.97-0.99-1.5
	c-0.23-1.39-1.54-2.66-3.12-2.15c-9.95,2.14-20.65-4.13-25.58-12.71c-4.63-9.8-1.95-21.7,3.97-30.35c0.62-1.25,2.12-2.52,2.78-3.85
	c0.41-0.37,0.7-0.87,0.75-1.47c0.09-0.7-0.13-1.32-0.52-1.9c-1.01-1.45-1.87-3.44-2.2-5.24c-2.31-14.25,7.78-24.18,21.54-25.33
	c1.16-0.07,2.04-0.76,2.45-1.63c0,0,0-0.01,0.01-0.01c0.14-0.21,0.24-0.44,0.3-0.7c6.53-19.14,25.49-27.41,41.54-12.96
	c2.95,2.49,4.99,6.1,6.18,9.76c0.67,1.87,1,4.85,3.42,4.69c0,0,0,0,0.01,0C146.77,80.11,148.36,79.93,149.52,80.04z"/>
<path class="st0" d="M175.33,181.51c3.19,0.95,4.7-3.71,1.58-4.8c-2.61-0.84-5.37-1.15-8.08-0.72c-2.64,0.16-4.89,1.83-7.48,2.1
	c-2.22-0.03-3.68-1.19-5.93-1.86c-2.86-0.95-5.93-0.43-8.74,0.45c-2.04,0.37-4.67,1.87-3.46,4.28c1.24,2.28,3.48,1.03,5.33,0.42
	c1.53-0.44,3.34-0.86,4.96-0.46c2.53,0.79,4.9,2.25,7.63,2.2c2.41,0.07,4.56-1.06,6.78-1.82
	C170.34,180.64,172.94,180.71,175.33,181.51z M178.9,145.09c0.08-0.26,0.11-0.52,0.1-0.79c-0.03-0.87-0.5-1.59-1.18-2.02
	c0,0,0,0,0,0c-0.42-0.3-0.93-0.47-1.48-0.46c-0.19,0-0.38,0.03-0.56,0.07c-0.5,0.01-0.99,0.02-1.49,0.02
	c-1.7,0.03-3.41,0.08-5.11,0.11c0.03-2.41,0.05-4.82,0.09-7.23c0,0,0-0.01,0-0.02s0-0.01,0-0.02c0.02-1.38-1.22-2.51-2.57-2.48
	c-0.04,0-0.08,0-0.12,0.01c-0.25-0.07-0.52-0.11-0.79-0.11c-0.01,0-0.02,0-0.03,0c-2.89,0.04-5.77,0.07-8.66,0.12
	c-0.3,0-0.57,0.06-0.83,0.18c0,0,0,0-0.01,0c-1.41,0.08-2.4,1.29-2.37,2.67c0.01,0.38,0.02,0.76,0.03,1.14
	c0.05,1.9,0.1,3.79,0.15,5.68c-2.67,0.01-5.34,0.16-8.01,0.21c-0.85-0.09-1.73,0.26-2.29,0.97c-0.4,0.51-0.55,1.15-0.49,1.77
	c-0.01,0.11-0.02,0.23-0.01,0.34c0.01,0.31,0.02,0.62,0.03,0.93c0.1,3.23,0.21,6.47,0.32,9.71c0.03,0.83,0.47,1.57,1.12,2.01
	c0.45,0.39,1.04,0.63,1.67,0.63c0,0,0.01,0,0.02,0c0.01,0,0.02,0,0.04,0c0.01,0,0.02,0,0.03,0c0.91-0.01,1.81-0.02,2.71-0.03
	c1.47-0.01,2.93-0.03,4.4-0.05c0.03,0.65,0.05,1.29,0.07,1.93c0.06,1.64,0.13,3.29,0.19,4.93c0,0.11,0.02,0.23,0.04,0.34
	c-0.05,1.32,1.04,2.62,2.41,2.62c0.04,0,0.09,0,0.13,0c0.01,0,0.03,0,0.04,0c0.64,0,1.28,0,1.92-0.01c2.45-0.01,4.9-0.01,7.34-0.03
	c0.39,0,0.77-0.08,1.11-0.23c1.23-0.14,2.23-1.19,2.25-2.46c0.01-0.91,0.01-1.82,0.02-2.72c0.01-1.52,0.03-3.04,0.03-4.56
	c0.38,0,0.75,0,1.12,0c1.98,0,3.96,0.01,5.94,0.01c1.24,0,2.32-0.88,2.54-2.08c0.13-0.31,0.2-0.64,0.2-0.99c0-0.19,0-0.38,0-0.57
	C178.94,151.45,178.9,148.28,178.9,145.09z M187.11,118.65c-0.02,3.7-0.04,7.39-0.06,11.1c-0.03,6.16-0.07,12.31-0.1,18.47
	c-0.02,4.13-0.04,8.25-0.06,12.37c-0.03,4.46-0.05,8.92-0.07,13.38c-0.02,3.67-0.04,7.34-0.06,11.01c-0.01,2.06-0.02,4.12-0.03,6.18
	c-7.7-0.08-15.37,0.81-23.08,0.64c-9.66,0.17-19.18-0.53-28.87-0.58c0-3.54-0.02-7.08-0.04-10.63c-0.01-4.57-0.03-9.13-0.04-13.7
	c-0.01-4.76-0.02-9.53-0.04-14.29c0-0.08,0-0.16-0.01-0.25c0.99-1.25,1.82-2.59,2.46-4.01c2.17-4.94,1.05-10.18-2.03-13.73
	c0.02-0.11,0.02-0.22,0.02-0.34c-0.06-2.77-0.11-5.55-0.17-8.32c-0.05-2.43-0.1-4.86-0.15-7.29c2.64-0.43,5.35-0.23,8.13-0.2
	c0.02,1.98,0.04,3.96,0.07,5.94c0,0.19,0.02,0.37,0.06,0.55c-0.01,0.09-0.02,0.18-0.03,0.28c-0.07,1.3,1,2.66,2.37,2.66
	c0,0,0.01,0,0.02,0c2.95-0.03,5.9-0.05,8.85-0.08c4.23-0.04,8.47-0.08,12.71-0.12c3.17-0.03,6.35-0.05,9.52-0.09
	c0.03,0,0.06,0,0.1,0c0.06,0,0.12,0,0.19,0c0.68,0,1.29-0.17,1.81-0.63c0.44-0.39,0.74-0.93,0.82-1.51
	c0.03-0.18,0.05-0.37,0.05-0.55c0-0.18-0.01-0.37-0.01-0.55c-0.05-1.99-0.1-3.98-0.15-5.97
	C181.86,118.39,184.57,118.06,187.11,118.65z"/>
<path class="st1" d="M174.3,122.59c-1.97,0.02-3.94,0.03-5.91,0.05c-4.32,0.04-8.65,0.08-12.98,0.12c-2.48,0.02-4.96,0.04-7.44,0.06
	c-0.02-2.33-0.04-4.66-0.07-7c1.52-0.15,3.06-0.36,4.58-0.31c1.68,0.05,2.59-1.17,2.65-2.42c0.07-0.17,0.12-0.35,0.16-0.54
	c1.91-6.21,10.05-7.33,10.97,0.15c0.01,0.05,0.03,0.11,0.05,0.16c0,0.02,0,0.04,0,0.07c0,1.4,1.15,2.49,2.53,2.52
	c0.14,0,0.28,0.01,0.42,0.01c1.15,0.03,2.3,0.07,3.44,0.11c0.47,0.01,0.94,0.03,1.42,0.04C174.18,117.95,174.23,120.27,174.3,122.59
	z"/>
<path class="st2" d="M173.89,153.21c-0.63,0-1.26-0.01-1.9-0.01c-1.64,0-3.28,0-4.92-0.01c-0.01,0-0.03,0-0.04,0
	c-0.11-0.01-0.22-0.02-0.33-0.02c-1.36-0.02-2.57,1.11-2.57,2.48c0,0.72-0.01,1.43-0.01,2.15c-0.01,1.8-0.02,3.59-0.04,5.39
	c-1.75,0-3.49,0.01-5.24,0.02c-0.08-2.35-0.18-4.7-0.27-7.05c0-0.04,0-0.08,0-0.12c0,0,0-0.01,0-0.02c0,0,0-0.01,0-0.02
	c-0.03-0.77-0.44-1.45-1.04-1.88c-0.47-0.47-1.12-0.76-1.82-0.75c-0.51,0-1.01,0.01-1.52,0.01c-1.87,0.02-3.73,0.04-5.59,0.06
	c-0.07-2.09-0.14-4.18-0.2-6.26c2.77-0.06,5.56-0.31,8.33-0.13c1.74-0.05,2.55-1.44,2.44-2.74c0-0.07,0-0.14,0-0.21
	c0-0.21-0.01-0.42-0.01-0.63c-0.05-2.05-0.12-4.1-0.17-6.15c1.73-0.02,3.46-0.04,5.2-0.07c-0.01,0.66-0.01,1.32-0.02,1.97
	c-0.02,1.75-0.04,3.49-0.06,5.24c-0.01,1.1,0.78,2.05,1.79,2.36c0,0,0.01,0,0.01,0c0.37,0.18,0.77,0.28,1.2,0.28
	c1.23,0,2.46-0.04,3.69-0.06c1.03-0.02,2.05-0.03,3.07-0.05C173.87,149.06,173.88,151.13,173.89,153.21z"/>
</svg>
