<?xml version="1.0" encoding="utf-8"?>
<!-- Generator: Adobe Adobe Illustrator 24.2.0, SVG Export Plug-In . SVG Version: 6.00 Build 0)  -->
<svg version="1.1" id="Vector_layer_1_" xmlns="http://www.w3.org/2000/svg" xmlns:xlink="http://www.w3.org/1999/xlink" x="0px"
	 y="0px" width="250px" height="250px" viewBox="0 0 250 250" style="enable-background:new 0 0 250 250;" xml:space="preserve">
<style type="text/css">
	.st0{fill:#C59FFE;}
	.st1{fill:#69D3EA;}
	.st2{fill:#F8F5F1;}
</style>
<path d="M68.57,64.97c-1.36-1.15-0.94-2.93-0.53-4.42c0.85-3.35,3.61-5.95,6.94-6.82c3.24-0.75,4.47,4.02,1.26,4.91
	c-2.02,0.52-3.38,2.31-3.54,4.36c0,0,0-0.01,0-0.01c-0.01,0.05-0.01,0.1-0.02,0.15c0-0.05,0.01-0.11,0.01-0.16
	c0-0.01-0.01-0.02-0.01-0.03C72.78,65.08,70.13,66.31,68.57,64.97z"/>
<path d="M67.67,187.73c0-4.22-0.01-8.43-0.02-12.65c-0.01-9.32-0.02-18.63-0.04-27.95c-0.01-8.61-0.02-17.22-0.04-25.83
	c-0.01-7.76-0.02-15.51-0.03-23.27c-0.01-6.23-0.02-12.45-0.03-18.68c-0.01-4.19-0.01-8.38-0.02-12.58c0-1.53-0.01-3.05-0.01-4.58
	c0-1.38,1.17-2.53,2.54-2.53c1.39,0,2.54,1.16,2.54,2.54c0,3.22,0.01,6.44,0.01,9.65c0,4.68,0.01,9.36,0.02,14.04
	c0.01,7.52,0.02,15.04,0.03,22.57c0.01,8.27,0.02,16.55,0.04,24.82c0.01,8.6,0.02,17.19,0.04,25.79c0.01,7.92,0.02,15.84,0.03,23.75
	c0,1.64,0.01,3.28,0.01,4.92c0,1.38-1.17,2.53-2.54,2.53C68.82,190.27,67.67,189.11,67.67,187.73z"/>
<path d="M75.91,196.34c-1.38,0-2.58-1.01-2.64-2.43c-0.05-1.35,1.05-2.63,2.43-2.65c4.29-0.04,8.59-0.05,12.89-0.08
	c6.7-0.04,13.4-0.08,20.1-0.13c7.14-0.04,14.27-0.09,21.41-0.14c6.54-0.04,13.09-0.08,19.64-0.13c6.27-0.04,12.54-0.08,18.81-0.12
	c1.65-0.01,3.3-0.02,4.94-0.03c1.38,0,2.58,1.01,2.64,2.43c0.05,1.34-1.05,2.63-2.43,2.64c-5.97,0.04-11.95,0.07-17.92,0.11
	c-6.52,0.04-13.04,0.09-19.56,0.13c-7.42,0.05-14.84,0.1-22.26,0.15c-6.25,0.04-12.5,0.08-18.76,0.12
	c-5.34,0.03-10.67,0.07-16.01,0.1c-1.04,0.01-2.09,0.01-3.13,0.02c-0.03,0-0.06,0-0.08,0C75.95,196.34,75.93,196.34,75.91,196.34z"
	/>
<path d="M73.89,195.53c0.32,0.38,0.8,0.59,1.27,0.73c-3.35-0.37-6.25-3.17-7.23-6.32c-0.65-1.96-0.36-4.37,2.11-4.57
	c1.41-0.06,2.46,1.01,2.61,2.11c0.03,1.61,1.22,3.12,2.71,3.68c0.97,0.11,1.91,0.37,2.47,1.24
	C79.51,194.89,75.97,197.73,73.89,195.53z"/>
<path d="M179.66,190.71c-1.4-0.03-2.48-1.21-2.48-2.59c0-1.54,0-3.07,0.01-4.61c0,0,0,0,0,0c0-7.88,0.03-15.76,0.05-23.64
	c0.01-8.88,0.03-17.76,0.05-26.64c0.01-7.81,0.03-15.62,0.05-23.43c0.02-8.74,0.04-17.49,0.06-26.23
	c0.01-6.74,0.04-13.49,0.04-20.23c0-1.38,1.23-2.51,2.6-2.48c1.4,0.03,2.48,1.21,2.48,2.59c0,0.04,0,0.07,0,0.11c0,0,0,0,0,0
	c0,7.46-0.03,14.93-0.05,22.39c-0.01,8.59-0.03,17.17-0.05,25.76c-0.01,7.88-0.03,15.76-0.05,23.64
	c-0.02,8.68-0.04,17.36-0.05,26.04c-0.01,7.46-0.05,14.91-0.05,22.37c0,0.01,0,0.02,0,0.03c0,1.47,0,2.94-0.01,4.42
	c0,1.36-1.2,2.48-2.53,2.48C179.7,190.71,179.68,190.71,179.66,190.71z"/>
<path d="M170.66,193.22c-0.04-1.4,1.11-2.57,2.5-2.6c1.54-0.1,3.25-0.55,3.89-2.05c0.05-0.69,0.35-1.36,0.94-1.78
	c3.25-1.98,5.24,1.76,3.41,4.5C180.1,194.42,171.35,198.42,170.66,193.22z"/>
<path d="M173.83,59.06c-3.37-0.01-6.73-0.01-10.09-0.02c-5.46-0.01-10.93-0.02-16.39-0.04c-5.27-0.01-10.53-0.02-15.79-0.04
	c-4.89-0.01-9.79-0.02-14.69-0.04c-5-0.01-10.01-0.02-15.01-0.03c-4.86-0.01-9.73-0.02-14.59-0.04c-3.7-0.01-7.4-0.01-11.09-0.02
	c-0.2,0-0.4,0-0.6,0c-1.38,0-2.58-0.99-2.65-2.42c-0.06-1.33,1.04-2.65,2.42-2.65c0.03,0,0.06,0,0.09,0c0,0,0.01,0,0.01,0
	c3.48,0.01,6.96,0.02,10.45,0.03c4.89,0.01,9.77,0.02,14.66,0.03c4.92,0.01,9.84,0.02,14.76,0.04c4.85,0.01,9.7,0.02,14.56,0.03
	c5.24,0.01,10.47,0.02,15.7,0.04c5.51,0.01,11.02,0.03,16.53,0.04c3.77,0.01,7.55,0.02,11.32,0.03c0.06,0,0.12,0,0.18,0
	c1.38,0,2.58,0.99,2.65,2.42C176.31,57.74,175.21,59.06,173.83,59.06C173.83,59.06,173.83,59.06,173.83,59.06z"/>
<path d="M178.88,64.68c-0.89-0.33-1.45-1.08-1.59-1.94c-0.83-1.23-1.73-2.52-2.99-3.36c-0.26-0.14-0.5-0.31-0.79-0.37
	c-1.36-0.25-2.21-1.73-1.91-3.03c2.18-5.97,11.45,3.29,10.65,6.87C181.96,64.34,180.26,65.2,178.88,64.68z"/>
<path d="M123.41,118.51c-0.76-1.16-0.41-2.75,0.74-3.51c4.12-2.72,8.33-5.34,12.29-8.28c3.22-2.39,6.01-5.25,8.51-8.36
	c4.17-5.04,7.52-13.06,3.05-18.9c-3.22-4.16-9.4-5.7-14.29-3.89c-2.69,1.13-5.38,2.97-6.59,5.71c-0.43,3.26-5.24,2.8-5.05-0.48
	c0.58-3.59,3.59-6.33,6.48-8.27c5.81-3.86,13.79-3.57,19.58,0.19c16.6,12.17,0.74,32.67-12.15,40.56c-2.99,2.03-6.03,3.99-9.04,5.98
	C125.78,120.01,124.16,119.67,123.41,118.51z"/>
<path d="M124.07,120.01c-9.32-6.61-19.54-12.98-25.86-22.77c-7.68-11.06-3.23-23.57,9.58-27.5c7.44-2.58,16.01,1.82,19.35,8.72
	c1.37,3.04-3.06,5.17-4.57,2.21c-3.94-7.82-13.61-8.39-19.58-2.5c-11.71,12.03,8.82,27.01,17.93,33.37
	c1.72,1.25,3.35,2.64,5.13,3.81c1.13,0.56,1.73,1.92,1.28,3.15C126.85,119.79,125.34,120.49,124.07,120.01z"/>
<path d="M145.06,185.11c-2.08-1.2-4.15-2.41-6.23-3.61c-1.76-1.02-3.52-2.02-5.27-3.06c0,0,0,0-0.01,0
	c-0.04-0.02-0.07-0.04-0.11-0.06c-1.19-0.7-1.75-2.15-1.08-3.42c0.61-1.18,2.23-1.78,3.43-1.08c0.03,0.02,0.06,0.04,0.1,0.06
	c2.9,1.71,5.84,3.38,8.76,5.08c0.92,0.53,1.84,1.07,2.76,1.6c1.19,0.68,1.74,2.16,1.08,3.42c-0.43,0.84-1.36,1.38-2.29,1.38
	C145.8,185.41,145.41,185.32,145.06,185.11z"/>
<path d="M146.65,185.48c-1.42-0.19-2.3-1.47-2.19-2.85c0,0,0-0.01,0-0.02c0-0.02,0-0.05,0.01-0.07c0.18-2.26,0.39-4.51,0.58-6.76
	c0.08-1,0.17-1.99,0.26-2.98c0.12-1.38,1.52-2.36,2.85-2.19c1.41,0.18,2.31,1.47,2.19,2.85c-0.26,2.93-0.51,5.87-0.76,8.8
	c-0.03,0.35-0.06,0.7-0.09,1.05c-0.13,1.27-1.3,2.21-2.54,2.21C146.86,185.5,146.76,185.5,146.65,185.48z"/>
<path d="M116.91,179.42c-7.44-0.21-15.7-0.67-21.34-6.14c-10.05-9.53-9.99-26.89-2.42-37.9c5.29-6.56,13.94-9.22,22.12-9.49
	c10.84-0.59,22.22-0.52,32.4,3.66c6.03,2.5,10.78,7.88,11.94,14.36c2.28,9.85,2.03,21.77-6.12,28.91c-1.82,1.6-5.61,4.14-7.13,0.94
	c-0.52-1.26,0.1-2.81,1.39-3.31c1.33-0.45,2.42-1.38,3.34-2.42c4.12-4.28,5.01-10.4,4.57-16.07c-0.48-12.4-5.74-17.98-17.79-20.06
	c-10.46-1.61-21.5-2.05-31.67,0.59c-4.21,1.57-8.46,4.11-10.5,8.27c-5.73,11.45-3.26,30.13,11.32,32.67
	c7.26,1.29,14.96,1.01,22.03,0.63c2.43,0.19,6.08-1.71,7.45,1.13c0.87,2.72-1.53,3.69-3.84,3.66
	C127.43,179.34,122.16,179.52,116.91,179.42z"/>
<path d="M106.39,153.07c-1.83-0.75-2-3.12-0.7-4.46c1.83-2.48,4.94-3.59,7.95-3.52c3.49-0.52,10.96,4.44,6.73,7.79
	c-1.19,0.68-2.78,0.27-3.47-0.94c-0.4-0.69-0.97-1.32-1.75-1.55c-1.75-0.45-3.94-0.3-5.24,1.09
	C109.23,152.73,107.83,153.74,106.39,153.07z M109.61,149.58c-0.22-0.49-0.65-0.89-1.11-1.12
	C108.98,148.72,109.37,149.12,109.61,149.58z"/>
<path d="M128.74,153.17c-3.77-1.39-1.09-5.69,1.52-6.75c4.06-2.17,9.57-1.23,11.91,2.95c0.75,1.17,0.22,2.8-0.94,3.47
	c-1.24,0.71-2.72,0.23-3.35-0.76c-0.32-0.49-0.69-0.94-1.17-1.28c-1.52-0.84-3.77-0.48-4.94,0.8
	C131.34,152.77,129.98,153.53,128.74,153.17z"/>
<path d="M118.23,165.71c-2.6-0.88-6.13-3.71-2.86-6.13c1.11-0.68,2.5-0.28,3.31,0.66c1.8,1.19,4.05,1.6,6.17,1.49
	c1.52-0.17,2.85-0.44,4.22-1.05c1.6-0.96,3.58-2.35,5.08-0.4c2.35,3.98-4.35,5.68-7.14,6.27
	C124.08,167.12,120.99,166.78,118.23,165.71z"/>
<path class="st0" d="M147.99,79.46c4.48,5.84,1.12,13.85-3.04,18.89c-2.5,3.11-5.29,5.97-8.51,8.36c-3.73,2.78-7.67,5.26-11.56,7.81
	c-1.34-0.97-2.62-2.03-3.96-3c-9.11-6.35-29.64-21.34-17.93-33.37c5.81-5.73,15.1-5.34,19.24,1.87c-0.07,0.25-0.12,0.52-0.17,0.78
	c-0.19,3.28,4.63,3.73,5.06,0.48c1.21-2.74,3.9-4.58,6.59-5.71C138.59,73.76,144.77,75.3,147.99,79.46z"/>
<path class="st1" d="M120.37,152.88c4.23-3.35-3.23-8.31-6.73-7.79c-3-0.06-6.12,1.05-7.95,3.52c-1.29,1.34-1.13,3.71,0.7,4.46
	c1.44,0.67,2.85-0.34,3.52-1.6c1.3-1.38,3.49-1.53,5.24-1.09c0.78,0.23,1.35,0.86,1.75,1.55
	C117.58,153.14,119.17,153.56,120.37,152.88z M127,166.54c2.79-0.59,9.49-2.29,7.14-6.27c-1.49-1.94-3.48-0.56-5.07,0.4
	c-1.37,0.61-2.7,0.88-4.22,1.05c-2.13,0.11-4.37-0.3-6.17-1.49c-0.81-0.94-2.2-1.34-3.31-0.66c-3.27,2.42,0.26,5.26,2.86,6.13
	C120.99,166.78,124.08,167.12,127,166.54z M141.23,152.84c1.16-0.66,1.69-2.3,0.94-3.47c-2.34-4.18-7.86-5.12-11.91-2.95
	c-2.61,1.07-5.29,5.37-1.52,6.75c1.24,0.36,2.6-0.4,3.03-1.58c1.17-1.28,3.42-1.63,4.94-0.8c0.48,0.34,0.85,0.8,1.17,1.28
	C138.52,153.06,139.99,153.55,141.23,152.84z M155.67,151.97c0.43,5.67-0.46,11.78-4.58,16.07c-0.91,1.05-2,1.97-3.34,2.42
	c-0.12,0.05-0.24,0.1-0.36,0.17h0c-1.06,0.19-1.99,1.05-2.08,2.16c-0.09,0.99-0.17,1.99-0.26,2.98c-0.09,1.1-0.19,2.2-0.29,3.3
	c-0.04-0.02-0.08-0.04-0.12-0.07c-2.92-1.7-5.86-3.36-8.76-5.08c-0.03-0.02-0.07-0.04-0.1-0.06c-0.53-0.31-1.13-0.37-1.7-0.23
	c-1.6-0.12-3.54,0.55-5.03,0.43c-7.07,0.39-14.77,0.66-22.03-0.62c-14.59-2.54-17.05-21.22-11.32-32.67
	c2.04-4.17,6.29-6.7,10.5-8.27c10.17-2.64,21.2-2.2,31.67-0.59C149.93,134,155.19,139.57,155.67,151.97z"/>
<path class="st2" d="M135.96,113.28c12.89-7.89,28.75-28.39,12.15-40.56c-5.79-3.76-13.77-4.06-19.58-0.19
	c-1.18,0.79-2.37,1.72-3.42,2.78c-4.07-5-11.1-7.72-17.33-5.57c-12.81,3.93-17.26,16.45-9.58,27.5
	c6.33,9.79,16.55,16.16,25.87,22.77c0.96,0.37,2.06,0.05,2.74-0.68l0,0c0.03-0.02,0.07-0.04,0.11-0.06
	C129.93,117.26,132.97,115.31,135.96,113.28z M153.49,172.83c8.15-7.15,8.39-19.06,6.12-28.91c-1.17-6.48-5.91-11.86-11.94-14.36
	c-10.19-4.17-21.56-4.25-32.4-3.66c-8.17,0.27-16.82,2.94-22.12,9.49c-7.57,11.01-7.63,28.36,2.42,37.9
	c5.64,5.47,13.91,5.93,21.34,6.14c5.26,0.1,10.53-0.08,15.77-0.56c0.48,0,0.96-0.03,1.41-0.11c1.58,0.93,3.17,1.83,4.75,2.75
	c2.08,1.2,4.15,2.41,6.23,3.61c0.35,0.2,0.74,0.29,1.13,0.29c0.03,0,0.07,0,0.1,0c0.11,0.04,0.24,0.06,0.36,0.08
	c0.1,0.01,0.21,0.02,0.31,0.02c1.23,0,2.4-0.93,2.53-2.21c0.03-0.35,0.06-0.7,0.09-1.05c0.21-2.43,0.41-4.86,0.63-7.29
	C151.45,174.47,152.68,173.55,153.49,172.83z M177.45,63.29c0,0.01,0,0.03,0,0.05c0,6.74-0.02,13.49-0.04,20.23
	c-0.02,8.75-0.04,17.49-0.06,26.23c-0.01,7.81-0.03,15.62-0.05,23.43c-0.02,8.88-0.04,17.76-0.05,26.64
	c-0.02,7.88-0.05,15.76-0.05,23.64c0,1.47,0,2.95-0.01,4.42c-0.07,0.21-0.11,0.43-0.13,0.65c-0.64,1.49-2.36,1.94-3.89,2.05
	c-0.03,0-0.07,0-0.1,0.01c-1.5,0.01-3,0.02-4.51,0.03c-6.27,0.04-12.54,0.08-18.81,0.12c-6.54,0.04-13.09,0.08-19.64,0.13
	c-7.14,0.04-14.27,0.09-21.41,0.14c-6.7,0.04-13.4,0.09-20.1,0.13c-4.18,0.03-8.36,0.04-12.54,0.08c-0.22-0.05-0.45-0.08-0.67-0.11
	c-1.29-0.49-2.36-1.7-2.64-3.06c0.02-0.11,0.03-0.23,0.03-0.35c0-1.64,0-3.28-0.01-4.92c-0.01-7.92-0.02-15.84-0.03-23.75
	c-0.01-8.6-0.03-17.19-0.04-25.79c-0.01-8.27-0.03-16.55-0.04-24.82c-0.01-7.53-0.02-15.05-0.03-22.57c0-4.68-0.01-9.36-0.02-14.04
	c0-2.67-0.01-5.35-0.01-8.03c0.07-0.21,0.12-0.43,0.12-0.66c0-0.02,0-0.04,0-0.07c0,0,0,0,0,0c0-0.02,0-0.05,0.01-0.07l0,0
	c0.15-1.87,1.29-3.53,3.03-4.19c0.14,0,0.29,0,0.44,0c3.69,0.01,7.39,0.01,11.09,0.02c4.86,0.01,9.73,0.02,14.59,0.04
	c5,0.01,10.01,0.02,15.01,0.03c4.89,0.01,9.79,0.02,14.69,0.04c5.27,0.01,10.53,0.02,15.79,0.04c5.46,0.01,10.93,0.03,16.39,0.04
	c3.32,0.01,6.63,0.01,9.95,0.02c0.21,0.08,0.41,0.21,0.61,0.32c1.25,0.83,2.16,2.13,2.98,3.36
	C177.32,62.93,177.37,63.11,177.45,63.29z"/>
</svg>
