<?xml version="1.0" encoding="UTF-8"?><svg id="Layer_1" xmlns="http://www.w3.org/2000/svg" viewBox="0 0 118.44 47.64"><polygon points="4.42 1.66 38.92 1.66 38.92 12.28 34.76 12.28 27.92 12.28 27.92 16.36 27.92 42.68 23.75 42.68 15.47 42.68 15.47 12.28 4.42 12.28 4.42 5.73 4.42 1.66" fill="none" stroke="#231f20" stroke-miterlimit="10" stroke-width="2"/><polyline points="23.75 42.68 23.75 45.86 23.75 46.75 11.92 46.75 11.31 46.75 11.31 16.36 .25 16.36 .25 15.78 .25 5.73 1.17 5.73 4.42 5.73" fill="none" stroke="#231f20" stroke-linecap="round" stroke-linejoin="round" stroke-width=".5"/><polyline points="34.76 12.28 34.76 15.49 34.76 16.36 27.92 16.36" fill="none" stroke="#231f20" stroke-linecap="round" stroke-linejoin="round" stroke-width=".5"/><path d="M46.01,29.67c-.21-.11-.42-.21-.63-.33-1.66-.87-3.11-2.02-4.17-3.63-2.67-5.26-2.03-10.41.7-14.26.75-1.07,1.67-2.03,2.71-2.87.4-.31.81-.61,1.24-.88" fill="none" stroke="#231f20" stroke-linecap="round" stroke-linejoin="round" stroke-width=".5"/><path d="M69.51,41.14c-.38.61-.81,1.19-1.28,1.73-1.16,1.31-2.58,2.35-4.23,2.95-7.98,3.2-18.94,1.37-25.57-4.29-.14-.13-.28-.25-.42-.38l4.74-9.73c.19.16.38.32.58.48.35.28.72.56,1.1.83" fill="none" stroke="#231f20" stroke-linecap="round" stroke-linejoin="round" stroke-width=".5"/><line x1="70.2" y1="15.15" x2="68.62" y2="18.07" fill="none" stroke="#231f20" stroke-linecap="round" stroke-linejoin="round" stroke-width=".5"/><path d="M45.86,7.7c2.85-4.28,8.24-7.04,14.53-6.67,6.32.02,11.76,1.65,16.24,5.85l-4.97,9.23-.05.09c-.45-.35-.91-.71-1.41-1.05-3.82-2.69-9.08-4.93-13.2-2.56-1.36,2.03,1.53,2.39,3.13,2.93h0l4.85,1.3c1.33.35,2.54.77,3.63,1.25.83.36,1.59.76,2.28,1.2.85.53,1.59,1.13,2.23,1.78,5.09,5.54,2.94,16.49-3.62,20.09-.43.23-.88.44-1.35.61-8.15,3.27-19.41,1.29-25.98-4.66l2.25-4.36,1.58-3.06,1.08-2.09c2.46,2.12,5.93,3.99,9.41,4.72,1.8.39,3.61.47,5.28.12,2.67-1.06.98-3.56-1.5-3.79-5.08-1.45-11.75-2.19-14.9-6.99-2.6-5.11-2.06-10.13.48-13.94Z" fill="none" stroke="#231f20" stroke-miterlimit="10" stroke-width="2"/><line x1="11.92" y1="46.14" x2="15.47" y2="42.68" fill="none" stroke="#231f20" stroke-miterlimit="10" stroke-width="2"/><polyline points="23.33 46.13 23.75 45.86 28.13 43.01 28.39 42.85" fill="none" stroke="#231f20" stroke-miterlimit="10" stroke-width="2"/><polyline points=".83 6.23 1.17 5.73 4.09 1.43 4.2 1.28" fill="none" stroke="#231f20" stroke-miterlimit="10" stroke-width="2"/><line x1=".79" y1="15.78" x2="4.42" y2="12.28" fill="none" stroke="#231f20" stroke-miterlimit="10" stroke-width="2"/><line x1="43.33" y1="31.9" x2="45.38" y2="29.34" fill="none" stroke="#231f20" stroke-miterlimit="10" stroke-width="2"/><line x1="39.03" y1="41.27" x2="42.18" y2="37.09" fill="none" stroke="#231f20" stroke-miterlimit="10" stroke-width="2"/><line x1="72.46" y1="39.12" x2="68.23" y2="42.87" fill="none" stroke="#231f20" stroke-linecap="round" stroke-linejoin="round" stroke-width=".5"/><polyline points="34.34 15.77 34.76 15.49 39.14 12.63 39.38 12.47" fill="none" stroke="#231f20" stroke-miterlimit="10" stroke-width="2"/><line x1="72.3" y1="16.47" x2="70.96" y2="19.16" fill="none" stroke="#231f20" stroke-linecap="round" stroke-linejoin="round" stroke-width=".5"/><path d="M45.86,7.7c2.85-4.28,8.24-7.04,14.53-6.67,6.32.02,11.76,1.65,16.24,5.85l-4.97,9.23-.05.09c-.45-.35-.91-.71-1.41-1.05l2.26-4.2c-4.48-4.2-9.92-5.83-16.24-5.85-3.94-.23-7.53.77-10.36,2.6Z" fill="#fff"/><path d="M70.2,15.15c.5.34.96.7,1.41,1.05l.05-.09.64.36-1.34,2.69-.06.11c-.69-.44-1.45-.84-2.28-1.2l1.58-2.92Z" fill="#231f20"/><path d="M57,12.59c4.12-2.37,9.38-.13,13.2,2.56l-1.58,2.92c-1.09-.48-2.3-.9-3.63-1.25l-4.85-1.3h0c-1.6-.54-4.49-.9-3.13-2.93Z" fill="#231f20"/><path d="M60.14,15.52l4.85,1.3c1.33.35,2.54.77,3.63,1.25l-1.18,2.2c-2.04-1.63-4.72-3.3-7.47-4.11l.17-.64Z" fill="#fff"/><path d="M52.83,16.67c2.19-1.27,4.7-1.22,7.14-.51,2.75.81,5.43,2.48,7.47,4.11l1.18-2.2c.83.36,1.59.76,2.28,1.2.85.53,1.59,1.13,2.23,1.78,5.09,5.54,2.94,16.49-3.62,20.09,3.02-4.86,3.22-11.92-.55-16.02-1.83-1.87-4.55-3.27-8.14-4.23l-4.86-1.31c-1.59-.53-4.49-.89-3.13-2.91Z" fill="#fff"/><path d="M44.43,32.73c3.75,2.63,8.96,4.63,13.18,3.76,2.56-1.02,1.11-3.37-1.2-3.75l.09-.44c1.8.39,3.61.47,5.28.12,2.67-1.06.98-3.56-1.5-3.79-5.08-1.45-11.75-2.19-14.9-6.99-2.6-5.11-2.06-10.13.48-13.94,2.83-1.83,6.42-2.83,10.36-2.6,6.32.02,11.76,1.65,16.24,5.85l-2.26,4.2c-3.82-2.69-9.08-4.93-13.2-2.56-1.36,2.03,1.53,2.39,3.13,2.93h0l-.17.64c-2.44-.71-4.95-.76-7.14.51-1.36,2.02,1.54,2.38,3.13,2.91l4.86,1.31c3.59.96,6.31,2.36,8.14,4.23,3.77,4.1,3.57,11.16.55,16.02-.43.23-.88.44-1.35.61-8.15,3.27-19.41,1.29-25.98-4.66l2.25-4.36Z" fill="#fff"/><path d="M46.01,29.67c3.16,1.5,6.94,2.13,10.11,3.03.1.01.2.02.29.04,2.31.38,3.76,2.73,1.2,3.75-4.22.87-9.43-1.13-13.18-3.76l1.58-3.06Z" fill="#fff"/><path d="M46.01,29.67l1.08-2.09c2.46,2.12,5.93,3.99,9.41,4.72l-.09.44c-.09-.02-.19-.03-.29-.04-3.17-.9-6.95-1.53-10.11-3.03Z" fill="#fff"/><path d="M45.86,7.7c-2.54,3.81-3.08,8.83-.48,13.94,3.15,4.8,9.82,5.54,14.9,6.99,2.48.23,4.17,2.73,1.5,3.79-1.67.35-3.48.27-5.28-.12-3.48-.73-6.95-2.6-9.41-4.72l-1.08,2.09c-.21-.11-.42-.21-.63-.33-1.66-.87-3.11-2.02-4.17-3.63-2.67-5.26-2.03-10.41.7-14.26l2.71-2.87c.4-.31.81-.61,1.24-.88Z" fill="#231f20"/><path d="M43.33,31.9l2.05-2.56c.21.12.42.22.63.33l-1.58,3.06c-.38-.27-.75-.55-1.1-.83Z" fill="#231f20"/><path d="M44.62,8.58l-2.71,2.87c.75-1.07,1.67-2.03,2.71-2.87Z" fill="#231f20"/><path d="M39.03,41.27l3.15-4.18c6.57,5.95,17.83,7.93,25.98,4.66.47-.17.92-.38,1.35-.61-.38.61-.81,1.19-1.28,1.73-1.16,1.31-2.58,2.35-4.23,2.95-7.98,3.2-18.94,1.37-25.57-4.29l.6-.26Z" fill="#231f20"/><polygon points="39.14 12.63 34.76 15.49 34.76 12.28 38.92 12.28 39.14 12.63" fill="#231f20"/><path d="M42.18,37.09l-3.15,4.18-.6.26c-.14-.13-.28-.25-.42-.38l4.74-9.73c.19.16.38.32.58.48.35.28.72.56,1.1.83l-2.25,4.36Z" fill="#231f20"/><polygon points="38.92 1.66 38.92 12.28 34.76 12.28 34.76 5.73 4.42 5.73 4.42 1.66 38.92 1.66" fill="#fff"/><polygon points="34.76 15.49 34.76 16.36 27.92 16.36 27.92 12.28 34.76 12.28 34.76 15.49" fill="#231f20"/><polygon points="34.76 5.73 34.76 12.28 27.92 12.28 27.92 16.36 23.75 16.36 23.75 42.68 15.47 42.68 15.47 12.28 4.42 12.28 4.42 5.73 34.76 5.73" fill="#fff"/><polygon points="28.13 43.01 23.75 45.86 23.75 42.68 27.92 42.68 28.13 43.01" fill="#231f20"/><rect x="23.75" y="16.36" width="4.17" height="26.32" fill="#fff"/><polygon points="23.75 45.86 23.75 46.75 11.92 46.75 11.92 46.14 15.47 42.68 23.75 42.68 23.75 45.86" fill="#231f20"/><polygon points="4.42 1.66 4.42 5.73 1.17 5.73 4.09 1.43 4.42 1.66" fill="#231f20"/><polygon points=".25 15.78 .25 5.73 1.17 5.73 4.42 5.73 4.42 12.28 .79 15.78 .25 15.78" fill="#231f20"/><polygon points=".79 15.78 4.42 12.28 15.47 12.28 15.47 42.68 11.92 46.14 11.92 46.75 11.31 46.75 11.31 16.36 .25 16.36 .25 15.78 .79 15.78" fill="#231f20"/><polygon points="82.92 1.84 117.42 1.84 117.42 12.46 113.26 12.46 106.42 12.46 106.42 16.54 106.42 42.86 102.25 42.86 93.97 42.86 93.97 12.46 82.92 12.46 82.92 5.91 82.92 1.84" fill="none" stroke="#231f20" stroke-miterlimit="10" stroke-width="2"/><polyline points="102.25 42.86 102.25 46.04 102.25 46.93 90.42 46.93 89.81 46.93 89.81 16.54 78.75 16.54 78.75 15.96 78.75 5.91 79.67 5.91 82.92 5.91" fill="none" stroke="#231f20" stroke-linecap="round" stroke-linejoin="round" stroke-width=".5"/><polyline points="113.26 12.46 113.26 15.67 113.26 16.54 106.42 16.54" fill="none" stroke="#231f20" stroke-linecap="round" stroke-linejoin="round" stroke-width=".5"/><line x1="90.42" y1="46.32" x2="93.97" y2="42.86" fill="none" stroke="#231f20" stroke-miterlimit="10" stroke-width="2"/><polyline points="101.83 46.31 102.25 46.04 106.63 43.19 106.89 43.03" fill="none" stroke="#231f20" stroke-miterlimit="10" stroke-width="2"/><polyline points="79.33 6.41 79.67 5.91 82.59 1.61 82.7 1.46" fill="none" stroke="#231f20" stroke-miterlimit="10" stroke-width="2"/><line x1="79.29" y1="15.96" x2="82.92" y2="12.46" fill="none" stroke="#231f20" stroke-miterlimit="10" stroke-width="2"/><polyline points="112.84 15.95 113.26 15.67 117.64 12.81 117.88 12.65" fill="none" stroke="#231f20" stroke-miterlimit="10" stroke-width="2"/><polygon points="117.64 12.81 113.26 15.67 113.26 12.46 117.42 12.46 117.64 12.81" fill="#231f20"/><polygon points="117.42 1.84 117.42 12.46 113.26 12.46 113.26 5.91 82.92 5.91 82.92 1.84 117.42 1.84" fill="#fff"/><polygon points="113.26 15.67 113.26 16.54 106.42 16.54 106.42 12.46 113.26 12.46 113.26 15.67" fill="#231f20"/><polygon points="113.26 5.91 113.26 12.46 106.42 12.46 106.42 16.54 102.25 16.54 102.25 42.86 93.97 42.86 93.97 12.46 82.92 12.46 82.92 5.91 113.26 5.91" fill="#fff"/><polygon points="106.63 43.19 102.25 46.04 102.25 42.86 106.42 42.86 106.63 43.19" fill="#231f20"/><rect x="102.25" y="16.54" width="4.17" height="26.32" fill="#fff"/><polygon points="102.25 46.04 102.25 46.93 90.42 46.93 90.42 46.32 93.97 42.86 102.25 42.86 102.25 46.04" fill="#231f20"/><polygon points="82.92 1.84 82.92 5.91 79.67 5.91 82.59 1.61 82.92 1.84" fill="#231f20"/><polygon points="78.75 15.96 78.75 5.91 79.67 5.91 82.92 5.91 82.92 12.46 79.29 15.96 78.75 15.96" fill="#231f20"/><polygon points="79.29 15.96 82.92 12.46 93.97 12.46 93.97 42.86 90.42 46.32 90.42 46.93 89.81 46.93 89.81 16.54 78.75 16.54 78.75 15.96 79.29 15.96" fill="#231f20"/></svg>